<svg width="398" height="305" viewBox="0 0 398 305" fill="none" xmlns="http://www.w3.org/2000/svg">
<path d="M29.62 179.965L46.724 226.585H34.31L32.103 219.138H15L12.793 226.586H0.37999L17.76 179.966H29.62V179.965ZM23.276 191.275C22.724 193.758 21.896 196.241 21.345 198.448C20.241 202.034 18.586 207.551 17.483 210.862H29.345L23.275 191.276L23.276 191.275ZM59.414 195.689C61.621 193.759 64.104 192.379 69.344 191.827V200.931L66.034 201.482C61.069 202.31 59.69 203.138 59.69 207.552V227.138H49.483V192.103H59.413V195.689H59.414ZM72.93 179.965H82.861V187.965H72.93V179.965V179.965ZM72.93 192.103H82.861V226.862H72.93V192.103Z" fill="white"/>
<path d="M89.2069 192.103H118.724V199.827L100.241 218.586H118.724V226.586H87.2759V218.862L106.034 199.827H89.4828V192.103H89.2069Z" fill="white"/>
<path d="M157.897 209.482C157.897 218.31 152.931 227.689 139.414 227.689C129.759 227.689 120.931 222.172 120.931 209.482C120.931 199 127.551 190.448 140.793 191.276C154.586 191.827 157.897 203.138 157.897 209.482V209.482ZM132.517 202.586C131.137 204.516 130.862 207 130.862 209.206C130.862 214.724 133.621 219.413 139.138 219.413C144.655 219.413 147.414 215 147.414 209.483C147.414 205.62 146.586 202.586 144.655 200.931C142.448 199 140.241 199 138.586 199C135.828 199.551 133.896 200.379 132.517 202.586V202.586ZM171.414 195.413C172.517 194.31 173.069 193.483 174.724 192.655C176.379 192.103 178.586 191.275 181.069 191.275C183 191.275 185.483 191.551 187.138 192.655C190.724 194.585 191.828 197.62 191.828 203.138V226.862H181.62V207.276C181.62 204.241 181.62 203.138 181.068 202.034C180.24 200.104 178.585 199.276 176.378 199.276C171.137 199.276 171.137 203.689 171.137 207.827V226.586H160.93V192.379H171.137L171.413 195.413H171.414ZM197.069 202.034C197.345 199.551 197.621 196.793 200.655 194.31C203.965 191.827 207.828 191.276 211.965 191.276C216.103 191.276 226.586 192.379 226.586 201.206V221.344C226.586 224.931 226.862 225.482 227.69 226.862H217.759V223.552C215.276 225.482 212.241 227.689 207.276 227.689C199.276 227.689 195.966 221.896 195.966 217.207C195.966 211.689 200.379 208.379 203.138 207.276C205.897 206.172 212.518 204.793 216.655 203.966V202.034C216.655 200.379 216.379 197.896 212.793 197.896C208.379 197.896 207.828 200.655 207.552 202.034H197.069V202.034ZM209.759 212.517C208.103 213.069 205.345 214.172 205.345 216.931C205.345 218.586 206.725 220.517 209.207 220.517C210.587 220.517 211.69 219.965 212.793 219.413C216.103 217.207 216.379 214.173 216.379 210.586L209.759 212.516V212.517ZM248.931 212.793C250.034 214.173 251.138 215.276 253.345 216.379C256.379 218.034 259.69 218.586 262.448 218.586C267.138 218.586 271 216.379 271 213.069C271 209.482 266.31 208.655 262.724 208.379C260.241 208.103 257.483 207.827 255 207.276C252.241 206.724 242.31 204.516 242.31 194.586C242.31 182.448 253.07 178.862 261.07 178.862C271.829 178.862 277.622 184.103 281.76 187.689L273.208 193.759C271.828 192.379 270.449 190.999 268.518 189.896C266.863 189.069 263.828 187.966 260.794 187.966C256.104 187.966 253.898 190.724 253.898 192.931C253.898 196.517 257.76 197.069 259.967 197.344C264.932 197.896 271.553 199.276 274.311 200.104C279.553 202.034 282.311 206.172 282.311 211.689C282.311 214.999 280.932 218.862 278.725 221.62C274.587 226.586 267.691 227.965 261.07 227.965C247.829 227.965 242.587 221.896 239.829 218.585L248.932 212.793H248.931ZM287.828 182.173H298.034V192.93H304.655V199.275H298.035V214.723C298.035 216.93 298.035 218.585 300.793 218.585H304.379V226.585C302.172 226.861 300.793 227.137 299.138 227.137C295.552 227.137 291.69 226.861 289.483 223.827C288.103 221.895 288.103 219.412 288.103 216.102V199.551H283.138V193.207H288.103V182.172H287.828V182.173ZM307.69 202.034C307.966 199.551 308.241 196.793 311.276 194.31C314.586 191.827 318.448 191.276 322.586 191.276C326.724 191.276 337.206 192.379 337.206 201.206V221.344C337.206 224.931 337.483 225.482 338.31 226.862H328.38V223.552C325.897 225.482 322.862 227.689 317.897 227.689C309.897 227.689 306.587 221.896 306.587 217.207C306.587 211.689 311 208.379 313.759 207.276C316.517 206.172 323.138 204.793 327.276 203.966V202.034C327.276 200.379 327 197.896 323.414 197.896C319 197.896 318.448 200.655 318.172 202.034H307.69V202.034ZM320.655 212.517C319 213.069 316.241 214.172 316.241 216.931C316.241 218.586 317.621 220.517 320.103 220.517C321.483 220.517 322.586 219.965 323.69 219.413C327 217.207 327.276 214.173 327.276 210.586L320.656 212.516L320.655 212.517ZM344.103 182.172H354.31V192.931H360.931V199.276H354.311V214.724C354.311 216.931 354.311 218.586 357.069 218.586H360.655V226.586C358.448 226.862 357.069 227.138 355.414 227.138C351.828 227.138 347.966 226.862 345.759 223.828C344.379 221.896 344.379 219.413 344.379 216.103V199.551H339.414V193.207H344.379V182.172H344.103V182.172ZM397.069 218.034C395.966 219.689 394.586 221.62 392.931 223.276C389.897 226.034 385.483 228.241 379.966 228.241C369.759 228.241 362.586 221.621 362.586 210.31C362.586 202.034 366.724 191.276 380.241 191.276C382.172 191.276 388.241 191.551 392.655 196.241C397.069 201.207 397.345 207.827 397.621 211.689H372.793C372.793 216.103 375.276 220.241 380.793 220.241C386.31 220.241 388.241 216.655 389.621 214.172L397.069 218.034V218.034ZM386.862 205.07C386.586 203.69 386.31 201.76 384.931 200.104C383.551 198.724 381.621 198.174 379.966 198.174C377.483 198.174 375.828 199.277 374.724 200.38C373.344 202.035 373.069 203.414 372.794 205.07H386.862Z" fill="white"/>
<path d="M40.103 246.172V272.38C40.103 276.794 40.103 281.483 37.345 285.621C32.379 293.621 21.897 294.173 19.965 294.173C16.379 294.173 12.241 293.345 9.207 291.69C0.102997 287 0.102997 278.725 0.378997 272.38V246.172H12.241V275.413C12.241 277.896 12.241 279.827 13.069 281.207C14.449 283.689 17.759 284.517 20.517 284.517C28.517 284.517 28.517 279 28.517 275.413V246.448L40.103 246.172V246.172ZM55.552 261.62C56.655 260.517 57.207 259.69 58.862 258.862C60.517 258.31 62.724 257.482 65.207 257.482C67.137 257.482 69.621 257.758 71.276 258.862C74.862 260.792 75.966 263.827 75.966 269.344V293.069H65.759V273.482C65.759 270.448 65.759 269.344 65.207 268.241C64.379 266.31 62.724 265.482 60.517 265.482C55.276 265.482 55.276 269.896 55.276 274.034V292.793H45.069V258.31H55.276V261.62H55.552V261.62ZM81.482 246.172H91.414V254.172H81.483V246.172H81.482ZM81.482 258.31H91.414V293.069H81.483V258.31H81.482ZM94.448 258.31H105.207C109.345 273.758 110.172 276.793 111.276 283.413C112.656 275.689 112.931 274.862 114.862 266.862L117.07 258.31H127.553L116.243 292.793H105.483L94.449 258.31H94.448ZM162.034 284.241C160.931 285.896 159.552 287.827 157.897 289.482C154.862 292.241 150.448 294.448 144.931 294.448C134.724 294.448 127.551 287.828 127.551 276.517C127.551 268.241 131.69 257.482 145.207 257.482C147.137 257.482 153.207 257.758 157.621 262.448C162.034 267.413 162.311 274.034 162.586 277.896H137.76C137.76 282.31 140.242 286.448 145.76 286.448C151.277 286.448 153.208 282.862 154.587 280.379L162.035 284.241H162.034ZM151.828 271.276C151.552 269.896 151.276 267.966 149.897 266.31C148.517 264.93 146.587 264.379 144.931 264.379C142.448 264.379 140.793 265.482 139.69 266.586C138.31 268.241 138.034 269.62 137.759 271.276H151.828V271.276ZM176.379 261.896C178.586 259.966 181.069 258.586 186.31 258.034V267.138L183 267.689C178.034 268.517 176.655 269.344 176.655 273.759V293.344H166.448V258.31H176.379V261.896V261.896ZM192.655 281.206C195.414 283.966 199 285.896 202.586 285.896C205.069 285.896 208.656 285.069 208.656 282.586C208.656 281.482 207.828 280.931 207.276 280.655C205.621 279.827 203.414 279.551 201.483 279.275C199.828 279 198.448 278.724 196.793 278.172C194.586 277.62 192.655 276.792 191 275.138C189.345 273.482 188.517 271.276 188.517 268.517C188.517 262.724 193.483 256.931 203.137 256.931C211.414 256.931 216.103 260.517 218.587 262.172L212.241 267.965C208.931 265.482 205.897 264.655 203.69 264.655C199.828 264.655 198.724 266.31 198.724 267.138C198.724 269.068 200.931 269.62 204.241 270.172C211.138 271.552 219.138 273.207 219.138 281.482C219.138 289.758 210.862 293.62 202.862 293.62C193.207 293.62 188.242 288.93 186.034 287L192.655 281.207V281.206ZM222.448 246.172H232.379V254.172H222.449V246.172H222.448ZM222.448 258.31H232.379V293.069H222.449V258.31H222.448ZM241.207 248.379H251.414V259.138H258.034V265.482H251.414V280.931C251.414 283.138 251.414 284.793 254.172 284.793H257.759V292.793C255.552 293.069 254.172 293.344 252.517 293.344C248.931 293.344 245.069 293.069 242.862 290.034C241.482 288.104 241.482 285.62 241.482 282.31V265.758H236.242V259.413H241.207V248.38V248.379ZM293.345 258.31L281.207 295.551C280.379 297.758 279.552 299.965 277.897 301.896C275.414 304.379 273.207 304.655 270.448 304.655H263V296.655H266.586C268.241 296.655 270.724 296.655 270.724 294.172C270.724 293.344 270.448 292.517 270.172 291.689L259.966 258.31H270.724L276.517 283.138L282.31 258.31H293.345Z" fill="white"/>
<path d="M334.724 137.207C329.759 131.966 330.034 126.448 330.034 126.448V0.102997H282.31V101.07C281.759 110.725 272.38 112.932 267.138 112.932C259.69 112.656 255.552 108.518 255.552 101.346V0.102997H208.93H176.102C150.723 0.102997 126.723 3.966 118.447 25.207L113.757 6.448C112.654 2.586 108.517 0.102997 104.654 0.102997H21.621C20.517 0.102997 19.966 0.378997 20.517 1.207C20.517 1.207 22.724 3.414 26.862 8.103C32.655 14.724 30.448 23.276 30.448 23.276L0.102997 145.206H44.517L50.862 118.448H93.621L100.241 145.207H158.448C182.448 145.207 201.758 142.724 211.414 127.827C218.586 141.345 234.034 147.966 261.344 145.483C270.724 144.655 280.104 140.241 284.241 133.069L286.172 138.862C287.828 142.448 291.138 144.931 295.552 144.931H340.242C341.345 145.207 341.897 144.931 341.069 144.103C341.069 144.103 338.586 141.345 334.724 137.207V137.207ZM109.621 26.31L117.621 31C117.345 32.38 117.069 34.034 116.793 35.414L108.517 27.69C107.69 26.862 108.793 25.759 109.621 26.31V26.31ZM101.621 36.241L116.517 42.311C116.517 43.966 116.517 46.448 116.793 48.379L100.793 37.897C99.966 37.345 100.517 35.966 101.621 36.241ZM95.551 47.828L117.621 52.793C118.172 55.552 119.276 58.31 120.379 60.517L95 49.483C94.172 48.931 94.448 47.552 95.552 47.828H95.551ZM57.484 91.966L72.104 32.379L87 91.966H57.483H57.484ZM179.691 111.828C175.553 115.69 167.553 117.621 159.001 116.793C154.035 116.241 149.07 113.759 149.07 113.759L131.139 135.828C130.311 136.655 128.932 135.828 129.484 134.724L141.622 110.172C141.898 109.897 141.346 109.621 141.07 109.897L119.277 128.931C118.449 129.759 117.346 128.655 117.897 127.551L134.725 105.207C135.001 104.931 134.725 104.655 134.449 104.931L109.346 120.103C108.518 120.655 107.415 119.276 108.242 118.724L129.208 99.138C129.484 98.862 129.208 98.586 128.932 98.586L101.07 109.896C99.967 110.172 99.415 108.793 100.242 108.241L124.794 92.241C125.07 91.966 124.794 91.69 124.518 91.69L95.553 98.586C94.449 98.862 94.173 97.483 95.001 96.931L122.311 85.069C122.587 85.069 122.587 84.517 122.311 84.517L91.967 86.448C90.863 86.448 90.587 85.069 91.691 84.793L120.932 77.345C121.208 77.345 121.208 76.793 120.932 76.793L90.587 74.034C89.484 74.034 89.484 72.379 90.587 72.379L120.932 69.621C121.208 69.621 121.208 69.345 120.932 69.069L91.69 61.621C90.586 61.345 90.862 59.966 91.966 59.966L120.931 61.621C128.379 75.138 144.103 80.655 157.897 85.621C171.414 90.31 183 94.172 183 104.655C183 107.414 181.897 109.897 179.69 111.828H179.691ZM221.346 128.931L214.449 122.862C214.449 122.862 215.553 120.379 216.104 118.724L222.725 127.552C223.277 128.379 222.173 129.482 221.345 128.931H221.346ZM231.276 120.103L217.484 111.828C217.484 111.828 218.035 107.69 218.035 105.483L232.38 118.724C233.208 119.552 232.104 120.655 231.277 120.104L231.276 120.103ZM239.276 109.897L218.311 101.345C218.311 101.345 218.311 96.379 217.76 93.621L240.104 108.241C240.932 108.793 240.38 110.172 239.277 109.897H239.276ZM250.311 73.483L219.967 76.241C219.691 76.241 219.691 76.517 219.967 76.793L249.207 84.241C250.311 84.517 250.035 85.897 248.932 85.897L218.587 83.966C218.311 83.966 218.311 84.241 218.587 84.517L245.897 96.379C247.001 96.931 246.449 98.31 245.346 98.034L217.484 92.241C217.484 92.241 216.38 79.828 201.76 69.621C194.311 64.379 184.932 60.793 176.932 57.759C170.587 55.276 164.794 53.069 160.656 50.586C155.966 47.552 153.76 44.241 153.76 40.379C153.76 37.621 154.587 35.138 156.518 33.207C159.828 29.897 165.622 28.517 173.622 28.517C182.173 28.517 191.277 32.379 191.277 32.379L209.484 9.759C210.311 8.931 211.691 9.759 211.139 10.862L198.724 35.69C198.724 35.966 199 36.241 199 35.966L221.069 16.931C221.897 16.103 223 17.207 222.449 18.311L205.345 40.931C205.069 41.207 205.345 41.483 205.621 41.207L231 25.759C231.828 25.207 232.931 26.586 232.103 27.138L211.138 46.724C210.862 47 211.138 47.276 211.414 47L239.276 35.69C240.379 35.414 240.931 36.793 240.103 37.345L215.552 53.345C215.276 53.621 215.552 53.897 215.828 53.897L245.345 47.276C246.448 47 246.725 48.379 245.897 48.931L218.587 60.793C218.31 60.793 218.31 61.345 218.587 61.345L248.931 59.414C250.034 59.414 250.311 60.794 249.207 61.069L219.966 68.517C219.69 68.517 219.69 69.069 219.966 69.069L250.31 71.828C251.414 71.828 251.414 73.483 250.31 73.483H250.311Z" fill="white"/>
</svg>
