<svg width="400" height="267" viewBox="0 0 400 267" fill="none" xmlns="http://www.w3.org/2000/svg">
<g clip-path="url(#clip0)">
<path d="M264.25 0C266.15 0.37 268.06 0.68 269.94 1.14C278.85 3.32 283.94 9.4 284.1 18.51C284.27 26.76 284.17 35.02 284.1 43.27C284.069 43.9525 283.771 44.5956 283.27 45.06C260.62 63.36 236.83 79.83 209.14 89.83C197.58 94.01 185.71 96.67 173.32 95.93C164.71 95.43 156.63 93.23 150.14 87.16C144.04 81.47 141.59 74.28 142.36 66.04C143.54 53.41 150.36 43.79 159.18 35.33C168.5 26.33 179.69 20.4 191.39 15.24C205.895 8.73198 221.198 4.17239 236.9 1.68C241.01 1.06 245.16 0.8 249.29 0.36C249.99 0.28 250.68 0.12 251.37 0H264.25Z" fill="white"/>
<path d="M189.71 0C183.01 2.73 176.21 5.25 169.63 8.24C157.768 13.4349 146.889 20.6334 137.47 29.52C127.354 39.0527 120.134 51.2468 116.64 64.7C116.55 65.07 116.37 65.41 116.05 66.24C116.05 65.14 115.95 64.5 115.95 63.86C115.95 47.94 116.25 32.01 115.82 16.1C115.6 8.1 122.43 1.78 128.19 0.4C128.531 0.286417 128.865 0.152853 129.19 0H189.71Z" fill="white"/>
<path d="M399.66 200.09H392.51V154.46H399.66V200.09Z" fill="white"/>
<path d="M116 94.22C118.31 97.33 120.4 100.6 122.93 103.49C130.63 112.27 140.65 116.81 152.01 118.55C169.01 121.16 185.46 118.08 201.6 112.91C224.8 105.48 245.99 93.91 266.19 80.52C272.19 76.52 278 72.32 284.07 68.09C284.07 68.86 284.16 69.54 284.16 70.21C284.16 86.33 283.89 102.45 284.28 118.56C284.46 126.08 277.53 132.56 271.82 133.75C270.617 134.011 269.391 134.149 268.16 134.16C222.78 134.16 177.397 134.16 132.01 134.16C124.63 134.16 117.73 128.79 116.16 121.88C116.034 121.312 115.967 120.732 115.96 120.15C115.96 111.77 115.96 103.387 115.96 95C115.95 94.72 115.99 94.42 116 94.22V94.22Z" fill="white"/>
<path d="M42.42 163.83L35.7 167.36C33.8047 164.258 30.7726 162.019 27.25 161.12C25.2046 160.653 23.0853 160.608 21.0222 160.991C18.9592 161.373 16.9962 162.173 15.2539 163.342C13.5117 164.511 12.027 166.024 10.8913 167.788C9.75561 169.552 8.99286 171.53 8.64999 173.6C7.56999 180.38 9.08999 186.35 14.65 190.6C21.04 195.51 30.04 194.78 35.01 187.94C35.19 187.69 35.41 187.45 35.71 187.1L42.3 190.37C39.83 197.18 29.62 202.09 20.83 200.83C9.00999 199.04 0.829988 190.72 0.0699879 179.54C-0.780012 167.54 5.67999 157.71 16.5 154.54C27.08 151.41 37.59 155.11 42.42 163.83V163.83Z" fill="white"/>
<path d="M201.7 187.12L208.32 190.44C203.72 198.63 195.11 202.39 184.61 200.44C179.498 199.469 174.867 196.793 171.472 192.85C168.078 188.907 166.12 183.929 165.92 178.73C165.38 167.14 171.81 157.73 182.42 154.54C193.03 151.35 203.24 155.01 208.36 163.78L201.63 167.35C199.718 164.291 196.722 162.066 193.24 161.12C191.17 160.635 189.021 160.585 186.931 160.972C184.84 161.359 182.852 162.176 181.093 163.37C179.334 164.565 177.842 166.111 176.71 167.911C175.579 169.712 174.833 171.727 174.52 173.83C173.52 180.83 175.22 186.9 181.31 191.08C188 195.68 196.04 194.29 200.99 187.86C201.19 187.65 201.42 187.43 201.7 187.12V187.12Z" fill="white"/>
<path d="M120.65 199.94V196.53C118.43 197.8 116.32 199.53 113.91 200.31C110.827 201.343 107.473 201.22 104.474 199.963C101.475 198.706 99.0358 196.402 97.61 193.48C96.0258 190.451 95.1884 187.088 95.1675 183.67C95.1466 180.252 95.9429 176.878 97.49 173.83C101.76 165.09 112.79 163.4 119.71 170.24C119.887 170.51 120.019 170.807 120.1 171.12L120.6 170.79V167.07H127.93V199.95L120.65 199.94ZM120.65 183.49C120.65 181.67 120.7 179.85 120.65 178.03C120.664 177.399 120.478 176.78 120.12 176.26C119.099 174.989 117.785 173.985 116.29 173.334C114.796 172.682 113.166 172.403 111.54 172.52C109.868 172.585 108.253 173.143 106.897 174.124C105.542 175.104 104.506 176.463 103.92 178.03C103.202 179.666 102.815 181.429 102.781 183.215C102.747 185.002 103.066 186.777 103.72 188.44C104.427 190.593 105.933 192.393 107.927 193.47C109.921 194.547 112.252 194.819 114.44 194.23C118.77 193.23 120.67 190.94 120.67 186.61L120.65 183.49Z" fill="white"/>
<path d="M272.04 170.99V167.07H279.36V199.94H272.18C272.13 198.75 272.07 197.57 272.03 196.63C269.8 197.9 267.71 199.54 265.34 200.33C262.282 201.339 258.962 201.214 255.988 199.978C253.014 198.743 250.583 196.479 249.14 193.6C247.505 190.522 246.646 187.091 246.637 183.606C246.629 180.121 247.471 176.686 249.09 173.6C250.055 171.657 251.468 169.971 253.214 168.683C254.96 167.394 256.987 166.54 259.129 166.191C261.27 165.842 263.464 166.009 265.528 166.676C267.593 167.344 269.468 168.493 271 170.03C271.25 170.26 271.52 170.5 272.04 170.99V170.99ZM272.09 183.53C272.09 181.65 272.15 179.77 272.09 177.89C272.08 177.192 271.833 176.519 271.39 175.98C268.5 173.08 265.03 171.7 260.97 172.92C257.08 174.09 255.25 177.12 254.53 180.92C254.425 181.494 254.365 182.076 254.35 182.66C254.29 187.09 255.25 191.08 259.47 193.44C262.84 195.32 267.14 194.61 270.52 191.87C271.076 191.485 271.521 190.959 271.807 190.345C272.093 189.732 272.212 189.054 272.15 188.38C272.01 186.83 272.09 185.16 272.09 183.53V183.53Z" fill="white"/>
<path d="M212.83 154.37H219.83V171.14C222.54 168.62 225.24 166.75 228.52 166.44C231.076 166.129 233.667 166.258 236.18 166.82C240.7 168 242.18 171.76 242.28 175.97C242.44 183.82 242.28 191.68 242.28 199.54C242.28 199.65 242.18 199.77 242.08 199.99H234.97V197.89C234.97 191.89 234.75 185.89 235.02 179.96C235.35 172.68 229.93 171.47 225.11 173.12C224.265 173.445 223.452 173.847 222.68 174.32C221.692 174.799 220.874 175.57 220.338 176.529C219.802 177.487 219.572 178.587 219.68 179.68C219.9 185.68 219.75 191.76 219.75 197.8V199.99H212.75L212.83 154.37Z" fill="white"/>
<path d="M91.77 185.92H66.22C66.48 193.05 75.75 199.05 86.12 191.41C87.18 192.93 88.25 194.41 89.35 196.01C86.5709 198.633 83.0094 200.273 79.21 200.68C72.05 201.59 65.68 200.01 61.39 193.68C55.3 184.73 58.39 168.91 72.04 166.38C82.38 164.47 90.04 170.71 91.36 180.67C91.59 182.35 91.63 184.02 91.77 185.92V185.92ZM84.5 180.51C83.94 174.89 79.96 171.61 74.36 172.03C69.79 172.37 66.08 176.24 66.23 180.51H84.5Z" fill="white"/>
<path d="M387.57 185.99H362.28C363.01 194.89 372.15 197.35 382.23 191.45C383.23 192.91 384.23 194.38 385.41 196C383.2 198.144 380.425 199.615 377.41 200.24C370.1 201.84 363.41 200.95 358.31 194.85C350.8 185.79 354.12 168.74 368.38 166.34C379.18 164.52 386.54 171.34 387.54 181.77C387.67 183.05 387.57 184.36 387.57 185.99V185.99ZM362.26 180.51H380.49C380.49 175.67 376.49 172.03 371.39 172.01C366.29 171.99 362.31 175.71 362.26 180.51Z" fill="white"/>
<path d="M292.24 167.06V170.27C295.07 168.98 297.79 167.27 300.76 166.55C303.294 166.055 305.907 166.127 308.41 166.76C310.201 167.204 311.787 168.245 312.905 169.713C314.023 171.18 314.607 172.986 314.56 174.83C314.67 183.15 314.56 191.47 314.56 199.95H307.47V197.95C307.47 192.1 307.47 186.25 307.47 180.4C307.47 179.56 307.34 178.72 307.28 177.88C306.96 173.64 303.77 172.01 300.18 172.55C297.93 172.89 295.81 174.28 293.71 175.35C292.53 175.96 292.22 177.13 292.24 178.5C292.3 185.58 292.24 192.66 292.24 199.9H285.03V167.06H292.24Z" fill="white"/>
<path d="M327.83 200H320.59V167.09H327.83V170.25C330.7 168.97 333.43 167.25 336.4 166.56C338.868 166.07 341.413 166.121 343.86 166.71C345.598 167.095 347.155 168.054 348.28 169.433C349.405 170.812 350.032 172.53 350.06 174.31C350.21 182.81 350.06 191.31 350.06 199.96H343.06V197.96C343.06 191.907 343.06 185.863 343.06 179.83C343.06 174.05 339.86 171.41 334.26 172.83C332.43 173.397 330.73 174.321 329.26 175.55C328.449 176.317 327.975 177.374 327.94 178.49C327.82 184.92 327.88 191.36 327.88 197.79L327.83 200Z" fill="white"/>
<path d="M109.45 266.39C97.7 266.39 88.6 257.97 87.45 246.22C86.67 238.49 88.06 231.37 93.45 225.61C99.65 219.03 107.5 217.48 115.99 219.8C124.48 222.12 129.11 228.04 131.12 236.28C132.259 240.907 132.159 245.753 130.83 250.33C129.615 255.034 126.837 259.186 122.952 262.104C119.067 265.022 114.306 266.533 109.45 266.39V266.39ZM91.3 243.39C91.5011 245.329 91.8116 247.256 92.23 249.16C93.0851 253.03 95.2369 256.491 98.3288 258.97C101.421 261.449 105.267 262.797 109.23 262.79C117.38 262.94 124 258.05 126.53 250.01C127.76 246.158 128 242.059 127.23 238.09C125.98 231.51 122.79 226.25 116.23 223.81C109.67 221.37 103.65 222.01 98.23 226.36C93.2 230.43 91.57 236.16 91.3 243.39V243.39Z" fill="white"/>
<path d="M213.02 219.69H216.6V265.43H213.18V260.43C210.71 263.27 208.18 265.13 205.04 265.93C201.715 266.869 198.16 266.529 195.073 264.979C191.986 263.428 189.591 260.778 188.36 257.55C187.107 254.614 186.512 251.438 186.617 248.247C186.723 245.056 187.526 241.927 188.97 239.08C189.964 237.098 191.417 235.383 193.208 234.075C194.998 232.767 197.075 231.906 199.265 231.562C201.455 231.217 203.696 231.401 205.801 232.096C207.907 232.791 209.816 233.979 211.37 235.56C211.83 236.01 212.28 236.48 213.02 237.23V219.69ZM213.11 249.09C213.11 246.75 213.11 244.41 213.11 242.09C213.145 241.454 213.003 240.82 212.7 240.26C211.475 238.498 209.824 237.074 207.9 236.121C205.977 235.169 203.844 234.717 201.7 234.81C199.77 234.816 197.882 235.371 196.257 236.41C194.631 237.45 193.335 238.931 192.52 240.68C190.632 244.271 190.036 248.402 190.83 252.38C191.68 257.05 193.7 260.94 198.52 262.49C203.52 264.08 207.82 262.55 211.52 259.09C212.065 258.632 212.49 258.049 212.76 257.391C213.03 256.732 213.137 256.018 213.07 255.31C213.01 253.24 213.11 251.16 213.11 249.09V249.09Z" fill="white"/>
<path d="M291.29 248.83C291.19 256.47 287.44 262.75 281.41 265.22C279.189 266.17 276.78 266.598 274.368 266.471C271.955 266.344 269.605 265.665 267.496 264.486C265.387 263.308 263.577 261.661 262.205 259.674C260.832 257.686 259.934 255.409 259.58 253.02C258.58 247.02 259.39 241.42 263.43 236.72C267.78 231.65 273.51 230.49 279.74 232.16C285.97 233.83 289.36 238.45 290.74 244.59C291.05 245.95 291.11 247.39 291.29 248.83V248.83ZM287.29 249.38C287.39 246.265 286.621 243.183 285.07 240.48C284.09 238.768 282.683 237.338 280.986 236.332C279.289 235.326 277.36 234.777 275.388 234.738C273.415 234.7 271.466 235.174 269.732 236.114C267.997 237.053 266.535 238.427 265.49 240.1C263.845 242.833 262.998 245.972 263.044 249.162C263.09 252.352 264.027 255.465 265.75 258.15C266.796 259.703 268.209 260.974 269.865 261.849C271.521 262.724 273.367 263.177 275.239 263.166C277.112 263.155 278.953 262.681 280.598 261.787C282.244 260.893 283.642 259.605 284.67 258.04C286.359 255.455 287.268 252.438 287.29 249.35V249.38Z" fill="white"/>
<path d="M222.77 248.92C222.88 240.74 227.25 234.16 234.02 232.13C236.181 231.439 238.466 231.221 240.718 231.49C242.971 231.76 245.14 232.51 247.077 233.691C249.015 234.871 250.676 236.455 251.948 238.334C253.22 240.212 254.073 242.343 254.45 244.58C255.52 250.38 254.8 255.91 251.03 260.63C246.77 265.95 241.03 267.47 234.57 265.82C228.11 264.17 224.69 259.47 223.31 253.16C223 251.77 222.95 250.33 222.77 248.92V248.92ZM226.77 248.79C226.653 252.118 227.598 255.396 229.47 258.15C230.488 259.642 231.845 260.87 233.431 261.734C235.016 262.597 236.785 263.072 238.59 263.118C240.395 263.164 242.185 262.78 243.812 261.998C245.44 261.216 246.858 260.058 247.95 258.62C251.95 253.42 252.02 244.92 248.22 239.62C247.152 238.081 245.722 236.828 244.054 235.974C242.387 235.119 240.535 234.69 238.662 234.722C236.789 234.755 234.953 235.249 233.316 236.161C231.68 237.073 230.293 238.374 229.28 239.95C227.552 242.583 226.669 245.681 226.75 248.83L226.77 248.79Z" fill="white"/>
<path d="M47.41 154.38H54.51V199.99H47.41V154.38Z" fill="white"/>
<path d="M141.26 200H133.97V167.07H140.97V171.5C144.2 168.42 147.35 166.07 151.75 166.15V173.15C150.196 172.941 148.616 173.04 147.1 173.444C145.585 173.847 144.164 174.546 142.92 175.5C142.361 175.878 141.911 176.395 141.612 177C141.314 177.605 141.179 178.277 141.22 178.95C141.31 185.93 141.26 192.88 141.26 200Z" fill="white"/>
<path d="M138.9 232.44H142.27V234.64V254.51C142.27 254.51 145.38 263.8 152.03 262.92C155.021 262.541 157.785 261.126 159.84 258.92C160.586 258.092 161.028 257.033 161.09 255.92C161.2 248.84 161.15 241.76 161.15 234.68V232.47H164.62V265.47H161.25V260.88C160.17 261.73 159.45 262.32 158.71 262.88C155.904 265.137 152.411 266.368 148.81 266.37C142.48 266.37 138.94 263.37 138.72 257.02C138.44 249.02 138.65 240.92 138.66 232.87C138.67 232.77 138.83 232.66 138.9 232.44V232.44Z" fill="white"/>
<path d="M184.99 261.66L186.23 264.16C185.129 265.248 183.734 265.99 182.216 266.294C180.698 266.598 179.125 266.451 177.69 265.87C174.93 264.67 174.11 262.29 174.1 259.51C174.1 252.31 174.1 245.1 174.1 237.89V235.57H168.71V232.36H174.14V223.27H177.71C177.71 225.7 177.78 228.13 177.71 230.56C177.66 231.92 178.09 232.43 179.47 232.35C181.08 232.25 182.69 232.35 184.47 232.35V235.52H177.76V257.83C177.76 262.98 180.31 264.41 184.99 261.66V261.66Z" fill="white"/>
<path d="M297.44 232.44H300.9V237.71C304.11 234.25 307.27 231.59 312.01 231.71V235.48C308.18 235.2 305.1 236.73 302.44 239.31C301.916 239.786 301.504 240.371 301.233 241.025C300.961 241.678 300.838 242.383 300.87 243.09C300.95 250.48 300.87 257.88 300.87 265.44H297.4L297.44 232.44Z" fill="white"/>
</g>
<defs>
<clipPath id="clip0">
<rect width="399.67" height="266.46" fill="white"/>
</clipPath>
</defs>
</svg>
