<svg width="400" height="127" viewBox="0 0 400 127" fill="none" xmlns="http://www.w3.org/2000/svg">
<path d="M85.675 104.498C81.661 104.498 78.339 107.889 78.339 112.111C78.339 116.332 81.592 119.723 85.675 119.723C89.689 119.723 93.01 116.333 93.01 112.111C93.01 107.889 89.758 104.498 85.675 104.498V104.498ZM85.675 116.125C83.599 116.125 81.938 114.325 81.938 112.111C81.938 109.896 83.598 108.097 85.675 108.097C87.751 108.097 89.412 109.897 89.412 112.111C89.481 114.325 87.751 116.125 85.675 116.125ZM39.654 104.914H36.955C36.747 104.914 36.471 105.121 36.401 105.329L34.187 112.319L30.381 104.844C30.3096 104.743 30.2165 104.66 30.1087 104.6C30.0009 104.54 29.8811 104.506 29.758 104.498H29.481C29.3579 104.506 29.2381 104.54 29.1303 104.6C29.0225 104.66 28.9294 104.743 28.858 104.844L25.052 112.318L22.837 105.328C22.768 105.121 22.491 104.914 22.284 104.914H19.584C19.239 104.914 19.031 105.19 19.17 105.536L23.599 119.378C23.668 119.586 23.945 119.794 24.152 119.794H24.567C24.6901 119.786 24.8099 119.752 24.9177 119.692C25.0255 119.632 25.1186 119.549 25.19 119.448L29.689 110.658L34.187 119.448C34.2584 119.549 34.3515 119.632 34.4593 119.692C34.5671 119.752 34.6869 119.786 34.81 119.794H35.225C35.433 119.794 35.709 119.586 35.779 119.378L40.208 105.538C40.208 105.191 40 104.915 39.654 104.915V104.914ZM46.021 104.914H43.321C43.2392 104.914 43.1582 104.93 43.0827 104.961C43.0071 104.992 42.9384 105.038 42.8806 105.096C42.8228 105.153 42.777 105.222 42.7458 105.298C42.7146 105.373 42.6987 105.454 42.699 105.536V118.686C42.6987 118.768 42.7147 118.849 42.7459 118.925C42.7771 119 42.823 119.069 42.8809 119.127C42.9389 119.185 43.0076 119.23 43.0833 119.261C43.159 119.293 43.2402 119.308 43.322 119.308H46.021C46.1029 119.308 46.1841 119.293 46.2599 119.261C46.3356 119.23 46.4045 119.184 46.4624 119.126C46.5203 119.068 46.5662 119 46.5974 118.924C46.6285 118.848 46.6444 118.767 46.644 118.685V105.536C46.6443 105.454 46.6283 105.373 46.5971 105.297C46.5659 105.222 46.52 105.153 46.4621 105.095C46.4041 105.037 46.3353 104.992 46.2596 104.961C46.1839 104.929 46.1028 104.914 46.021 104.914V104.914ZM57.924 104.498C56.055 104.498 54.325 105.328 53.08 106.644L52.595 105.329C52.526 105.121 52.249 104.914 52.042 104.914H50.796C50.7142 104.914 50.633 104.929 50.5573 104.961C50.4816 104.992 50.4129 105.037 50.3549 105.095C50.297 105.153 50.2511 105.222 50.2199 105.297C50.1887 105.373 50.1727 105.454 50.173 105.536V126.298C50.1726 126.38 50.1884 126.461 50.2196 126.537C50.2508 126.613 50.2967 126.681 50.3546 126.739C50.4125 126.797 50.4813 126.843 50.5571 126.874C50.6329 126.906 50.7141 126.921 50.796 126.921H53.495C53.5769 126.921 53.6581 126.906 53.7339 126.874C53.8096 126.843 53.8785 126.797 53.9364 126.739C53.9943 126.681 54.0402 126.613 54.0714 126.537C54.1026 126.461 54.1184 126.38 54.118 126.298V119.1C55.294 119.516 56.54 119.723 57.855 119.723C61.661 119.723 64.775 116.333 64.775 112.111C64.845 107.889 61.73 104.498 57.924 104.498V104.498ZM57.163 116.125C56.055 116.125 54.948 115.848 54.118 115.295V109.827C54.4216 109.285 54.8633 108.833 55.3981 108.517C55.9329 108.201 56.5418 108.032 57.163 108.027C59.17 108.027 60.83 109.827 60.83 112.042C60.83 114.325 59.17 116.125 57.163 116.125V116.125ZM74.879 104.498C72.249 104.498 70.727 106.644 70.727 106.644L70.242 105.329C70.173 105.121 69.896 104.914 69.689 104.914H68.443C68.3612 104.914 68.28 104.929 68.2043 104.961C68.1287 104.992 68.0599 105.037 68.0019 105.095C67.944 105.153 67.8981 105.222 67.8669 105.297C67.8357 105.373 67.8197 105.454 67.82 105.536V118.686C67.8197 118.768 67.8357 118.849 67.8669 118.925C67.8981 119 67.944 119.069 68.0019 119.127C68.0599 119.185 68.1287 119.23 68.2043 119.261C68.28 119.293 68.3612 119.308 68.443 119.308H71.142C71.2239 119.308 71.3051 119.293 71.3809 119.261C71.4566 119.23 71.5255 119.184 71.5834 119.126C71.6413 119.068 71.6872 119 71.7184 118.924C71.7495 118.848 71.7654 118.767 71.765 118.685V109.481C73.356 107.543 75.363 108.166 75.779 108.374C76.194 108.512 76.471 108.304 76.609 108.028C76.747 107.751 77.301 106.367 77.578 105.882C77.785 105.398 77.439 104.498 74.878 104.498H74.879ZM45.19 98.132C44.014 97.786 42.837 98.547 42.491 99.723C42.145 100.9 42.907 102.145 44.014 102.423C45.19 102.768 46.367 102.007 46.713 100.831C47.059 99.654 46.367 98.478 45.19 98.131V98.132Z" fill="white"/>
<path d="M13.287 119.238C13.0454 119.361 12.7899 119.454 12.526 119.516C12.249 119.585 12.042 119.585 11.696 119.585C11.073 119.585 10.519 119.377 10.173 118.962C9.81885 118.533 9.62321 117.996 9.619 117.44H9.55C9.10509 118.183 8.45693 118.783 7.682 119.17C6.852 119.585 5.952 119.793 4.913 119.793C4.083 119.793 3.391 119.654 2.768 119.377C2.145 119.1 1.799 118.754 1.384 118.339C0.969 117.924 0.692 117.439 0.484 116.886C0.291995 116.378 0.198334 115.837 0.208 115.294C0.208 114.81 0.277 114.325 0.415 113.841C0.554 113.357 0.83 112.872 1.245 112.457C1.661 112.042 2.145 111.696 2.768 111.35C3.391 111.073 4.221 110.865 5.19 110.796L9.481 110.519V109.481C9.481 109.135 9.411 108.72 9.343 108.374C9.27531 107.961 9.05245 107.59 8.72 107.336C8.443 107.128 8.166 106.921 7.82 106.782C7.474 106.644 6.99 106.575 6.367 106.575C5.744 106.575 5.19 106.644 4.775 106.782C4.36 106.921 4.014 107.128 3.806 107.405C3.322 107.889 3.114 108.443 3.114 109.135H0.83C0.83 108.443 0.969 107.889 1.176 107.405C1.384 106.921 1.661 106.505 2.076 106.09C2.60523 105.566 3.24331 105.164 3.945 104.914C4.74454 104.63 5.5877 104.49 6.436 104.498C7.82 104.498 8.927 104.775 9.758 105.26C10.588 105.813 11.142 106.436 11.488 107.267C11.765 107.959 11.903 108.651 11.903 109.481V116.471C11.903 116.817 11.973 117.094 12.111 117.232C12.2613 117.371 12.4596 117.445 12.664 117.44H13.08L13.287 117.37V119.239V119.238ZM9.55 112.388L5.744 112.595C5.398 112.595 5.052 112.665 4.637 112.803C4.291 112.941 3.945 113.08 3.599 113.287C3.31151 113.505 3.05515 113.762 2.837 114.049C2.63 114.395 2.561 114.741 2.561 115.225C2.561 115.848 2.768 116.471 3.183 116.955C3.599 117.44 4.36 117.716 5.329 117.716C5.87202 117.726 6.41192 117.632 6.92 117.44C7.405 117.232 7.89 116.955 8.235 116.54C8.651 116.125 8.997 115.571 9.135 115.017C9.343 114.464 9.412 113.841 9.412 113.287V112.387H9.55V112.388ZM110.865 114.533C110.795 115.294 110.657 115.986 110.381 116.609C110.075 117.198 109.678 117.736 109.204 118.201C108.72 118.685 108.097 119.101 107.404 119.377C106.713 119.654 105.952 119.793 105.052 119.793C103.737 119.793 102.699 119.516 101.869 119.031C101.039 118.478 100.346 117.855 99.862 117.094C99.4545 116.453 99.1508 115.752 98.962 115.017C98.754 114.187 98.685 113.287 98.685 112.18C98.685 111.073 98.755 110.173 98.962 109.343C99.17 108.513 99.446 107.889 99.862 107.267C100.346 106.505 101.038 105.882 101.869 105.329C102.699 104.775 103.737 104.568 105.052 104.568C105.882 104.568 106.644 104.706 107.336 104.983C108.028 105.26 108.581 105.606 109.066 106.09C109.539 106.556 109.936 107.093 110.242 107.682C110.519 108.305 110.727 108.997 110.796 109.758H108.374C108.304 109.274 108.166 108.858 108.028 108.443C107.82 108.097 107.612 107.751 107.336 107.474C107.044 107.188 106.688 106.974 106.298 106.851C105.874 106.71 105.43 106.64 104.983 106.644C104.429 106.644 103.945 106.713 103.599 106.921C103.183 107.128 102.837 107.336 102.561 107.613C101.986 108.117 101.596 108.799 101.453 109.55C101.246 110.38 101.176 111.211 101.176 112.11C101.176 113.01 101.246 113.841 101.453 114.671C101.661 115.501 102.007 116.125 102.561 116.609C102.907 116.886 103.253 117.094 103.599 117.301C104.014 117.509 104.429 117.578 104.983 117.578C105.467 117.578 105.952 117.508 106.367 117.301C106.782 117.094 107.128 116.886 107.405 116.609C107.682 116.332 107.889 116.056 108.028 115.709C108.166 115.363 108.304 114.949 108.374 114.464H110.865V114.533V114.533ZM124.014 112.18C124.014 113.287 123.875 114.395 123.599 115.363C123.322 116.402 122.769 117.232 122.007 118.063C121.453 118.547 120.83 118.963 120.138 119.308C119.369 119.622 118.547 119.786 117.716 119.793C116.816 119.793 115.986 119.654 115.294 119.308C114.593 119.025 113.957 118.601 113.426 118.062C112.664 117.302 112.111 116.402 111.834 115.363C111.556 114.325 111.416 113.255 111.419 112.18C111.419 111.073 111.557 109.966 111.834 108.997C112.111 107.959 112.664 107.128 113.426 106.297C113.993 105.804 114.621 105.385 115.294 105.052C116.063 104.739 116.885 104.575 117.716 104.568C118.616 104.568 119.446 104.706 120.138 105.052C120.84 105.335 121.476 105.759 122.007 106.298C122.768 107.059 123.322 107.958 123.599 108.997C123.875 109.966 124.014 111.004 124.014 112.18V112.18ZM121.592 112.18C121.592 111.35 121.522 110.52 121.315 109.689C121.14 108.944 120.784 108.255 120.277 107.682C120 107.405 119.585 107.128 119.17 106.921C118.754 106.713 118.27 106.644 117.716 106.644C117.163 106.644 116.678 106.713 116.263 106.921C115.848 107.128 115.502 107.336 115.156 107.681C114.649 108.254 114.293 108.944 114.118 109.689C113.91 110.519 113.841 111.28 113.841 112.18C113.841 113.01 113.91 113.841 114.118 114.671C114.325 115.501 114.671 116.125 115.156 116.678C115.433 116.955 115.848 117.232 116.263 117.44C116.678 117.647 117.163 117.716 117.716 117.716C118.27 117.716 118.754 117.647 119.17 117.44C119.585 117.232 119.93 117.024 120.277 116.678C120.784 116.105 121.14 115.416 121.315 114.671C121.522 113.841 121.592 113.011 121.592 112.181V112.18ZM143.252 119.377V110.242C143.252 109.758 143.183 109.274 143.114 108.858C143.045 108.443 142.837 108.097 142.63 107.82C142.422 107.543 142.145 107.267 141.73 107.128C141.29 106.949 140.821 106.855 140.346 106.851C139.931 106.851 139.516 106.921 139.17 107.128C138.824 107.267 138.478 107.543 138.2 107.82C137.707 108.311 137.37 108.938 137.232 109.62C137.091 110.326 137.021 111.045 137.024 111.765V119.447H134.602V110.312C134.602 109.827 134.532 109.342 134.464 108.927C134.394 108.512 134.256 108.167 133.979 107.889C133.772 107.613 133.495 107.336 133.079 107.197C132.639 107.019 132.17 106.925 131.696 106.921C131.214 106.929 130.74 107.047 130.311 107.267C129.896 107.474 129.551 107.82 129.273 108.167C128.897 108.682 128.638 109.272 128.513 109.897C128.379 110.534 128.309 111.183 128.304 111.834V119.516H125.952V105.121H128.028L128.235 107.197C128.581 106.367 129.135 105.744 129.896 105.398C130.657 104.983 131.419 104.775 132.249 104.775C133.287 104.775 134.187 104.983 134.949 105.467C135.659 105.972 136.21 106.668 136.539 107.474C136.747 106.99 136.955 106.644 137.301 106.298C137.578 105.952 137.993 105.675 138.339 105.468C138.754 105.26 139.169 105.052 139.585 104.983C140 104.844 140.485 104.844 140.9 104.844C142.491 104.844 143.737 105.329 144.498 106.298C145.26 107.267 145.675 108.512 145.675 110.173V119.654H143.253V119.378L143.252 119.377ZM160.969 112.18C160.971 113.356 160.784 114.524 160.415 115.64C160.069 116.678 159.515 117.578 158.824 118.27C158.324 118.695 157.764 119.045 157.163 119.308C156.54 119.585 155.779 119.723 154.948 119.723C154.533 119.723 154.187 119.654 153.772 119.585C153.356 119.515 153.01 119.377 152.595 119.17C152.249 119.031 151.903 118.754 151.557 118.547C151.28 118.27 151.003 117.993 150.796 117.647V125.467H148.374V104.914H150.45L150.588 106.782C151.003 106.09 151.626 105.536 152.388 105.122C153.218 104.706 153.979 104.568 154.81 104.568C155.71 104.568 156.47 104.706 157.163 104.983C157.855 105.26 158.408 105.675 158.893 106.159C159.585 106.851 160.069 107.751 160.415 108.789C160.761 109.827 160.969 110.934 160.969 112.18V112.18ZM158.547 112.18C158.547 111.488 158.477 110.865 158.339 110.173C158.205 109.55 157.995 108.946 157.716 108.373C157.439 107.82 157.024 107.405 156.471 107.059C155.917 106.713 155.294 106.575 154.533 106.575C153.979 106.575 153.564 106.644 153.218 106.851C152.872 107.059 152.526 107.267 152.249 107.543C151.626 108.097 151.211 108.72 151.003 109.55C150.796 110.38 150.657 111.211 150.657 112.11C150.657 113.01 150.796 113.91 151.003 114.671C151.211 115.501 151.626 116.125 152.249 116.678C152.526 116.955 152.872 117.163 153.218 117.37C153.564 117.578 154.048 117.647 154.533 117.647C155.294 117.647 155.986 117.509 156.471 117.163C157.024 116.817 157.439 116.402 157.716 115.917C158.006 115.349 158.216 114.743 158.339 114.117C158.48 113.481 158.55 112.831 158.547 112.18V112.18ZM174.74 119.239C174.499 119.361 174.244 119.454 173.98 119.516C173.702 119.585 173.495 119.585 173.149 119.585C172.526 119.585 171.972 119.377 171.626 118.962C171.272 118.533 171.077 117.996 171.073 117.44H171.003C170.558 118.183 169.91 118.783 169.135 119.17C168.305 119.585 167.405 119.793 166.367 119.793C165.537 119.793 164.844 119.654 164.221 119.377C163.653 119.13 163.137 118.778 162.699 118.339C162.284 117.924 162.007 117.439 161.799 116.886C161.607 116.378 161.513 115.837 161.522 115.294C161.522 114.81 161.592 114.325 161.73 113.841C161.869 113.357 162.145 112.872 162.56 112.457C162.976 112.042 163.46 111.696 164.083 111.35C164.706 111.073 165.536 110.865 166.505 110.796L170.795 110.519V109.481C170.795 109.135 170.727 108.72 170.657 108.374C170.59 107.961 170.367 107.59 170.035 107.336C169.758 107.128 169.481 106.921 169.135 106.782C168.789 106.644 168.305 106.575 167.682 106.575C167.059 106.575 166.505 106.644 166.09 106.782C165.675 106.921 165.329 107.128 165.121 107.405C164.637 107.889 164.429 108.443 164.429 109.135H162.076C162.076 108.443 162.215 107.889 162.422 107.405C162.63 106.921 162.907 106.505 163.322 106.09C163.851 105.566 164.489 105.164 165.19 104.914C165.99 104.63 166.833 104.49 167.682 104.498C169.066 104.498 170.173 104.775 171.003 105.26C171.833 105.813 172.388 106.436 172.733 107.267C173.01 107.959 173.149 108.651 173.149 109.481V116.471C173.149 116.817 173.218 117.094 173.356 117.232C173.507 117.371 173.705 117.445 173.91 117.44H174.325L174.533 117.37V119.239H174.74V119.239ZM171.003 112.388L167.197 112.595C166.851 112.595 166.505 112.665 166.09 112.803C165.744 112.941 165.398 113.08 165.052 113.287C164.765 113.505 164.509 113.762 164.291 114.049C164.083 114.395 164.014 114.741 164.014 115.225C164.014 115.848 164.221 116.471 164.637 116.955C165.052 117.44 165.813 117.716 166.782 117.716C167.325 117.726 167.866 117.632 168.374 117.44C168.858 117.232 169.343 116.955 169.689 116.54C170.104 116.125 170.449 115.571 170.589 115.017C170.796 114.464 170.865 113.841 170.865 113.287V112.387H171.003V112.388ZM185.398 119.378V110.242C185.398 109.135 185.19 108.305 184.706 107.682C184.221 107.059 183.46 106.782 182.284 106.782C181.592 106.782 180.969 106.99 180.484 107.405C179.94 107.82 179.511 108.369 179.239 108.997C178.956 109.554 178.814 110.171 178.824 110.796C178.754 111.488 178.754 112.111 178.754 112.665V119.377H176.332V104.983H178.408L178.616 107.128C178.824 106.713 179.031 106.367 179.377 106.021C179.723 105.675 180.069 105.467 180.415 105.26C180.83 105.052 181.245 104.914 181.661 104.775C182.076 104.637 182.491 104.637 182.907 104.637C184.567 104.637 185.744 105.121 186.574 106.021C187.404 106.921 187.82 108.235 187.82 109.896V119.378H185.398V119.378ZM194.948 122.284C194.602 123.184 194.118 123.944 193.564 124.498C193.01 125.052 192.18 125.328 191.073 125.328C190.45 125.328 189.965 125.26 189.619 125.19C189.273 125.121 188.997 125.052 188.927 124.983V122.838C189.066 122.907 189.273 122.907 189.412 122.976C189.55 123.046 189.758 123.046 189.965 123.046H190.657C191.118 123.047 191.571 122.927 191.972 122.699C192.318 122.491 192.595 122.145 192.802 121.592L193.702 119.17L188.028 104.775H190.727L194.948 116.125L198.962 104.775H201.453L194.948 122.284V122.284Z" fill="white"/>
<path d="M16.055 14.533V66.298H31.42C39.24 66.298 44.707 62.422 47.821 54.74C49.482 50.519 50.312 45.467 50.312 39.585C50.312 31.488 49.067 25.329 46.506 20.969C43.946 16.679 38.963 14.533 31.42 14.533H16.055V14.533ZM46.436 2.56C52.042 4.36 56.54 7.75 59.931 12.595C62.6429 16.4498 64.571 20.7999 65.606 25.398C66.574 29.965 67.128 34.325 67.128 38.547C67.128 49.066 64.983 57.993 60.761 65.26C55.017 75.156 46.159 80.07 34.187 80.07H0V0.83H34.187C39.1 0.9 43.183 1.453 46.436 2.56ZM89.273 35.847C87.128 37.992 85.743 40.967 85.19 44.705H111.488C111.211 40.76 109.827 37.715 107.405 35.639C104.983 33.563 101.938 32.525 98.339 32.525C94.464 32.595 91.419 33.632 89.273 35.847ZM112.18 22.56C116.263 24.359 119.654 27.265 122.284 31.21C124.706 34.67 126.228 38.753 126.92 43.32C127.336 46.02 127.543 49.826 127.405 54.947H84.845C85.121 60.899 87.128 64.982 90.935 67.404C93.287 68.857 96.055 69.618 99.308 69.618C102.768 69.618 105.606 68.788 107.82 66.988C109.62 65.466 110.035 64.705 110.934 61.452H126.574C126.159 66.504 124.291 69.964 120.9 73.563C115.64 79.238 108.374 82.075 98.893 82.075C91.142 82.075 84.221 79.653 78.339 74.878C72.388 70.103 69.412 62.214 69.412 51.418C69.412 41.245 72.042 33.494 77.439 28.027C82.837 22.629 89.827 19.93 98.339 19.93C103.46 19.791 108.097 20.76 112.179 22.56H112.18ZM143.875 61.383C144.221 64.082 144.913 66.02 145.952 67.196C147.889 69.203 151.419 70.241 156.54 70.241C159.585 70.241 161.938 69.826 163.737 68.926C165.537 68.026 166.436 66.712 166.436 64.912C166.436 63.182 165.744 61.868 164.291 60.968C162.837 60.068 157.509 58.546 148.304 56.331C141.661 54.671 136.955 52.594 134.256 50.172C131.488 47.75 130.173 44.22 130.173 39.653C130.173 34.255 132.318 29.618 136.54 25.673C140.761 21.798 146.782 19.861 154.464 19.861C161.73 19.861 167.682 21.314 172.318 24.221C176.955 27.127 179.585 32.179 180.277 39.376H164.983C164.775 37.438 164.221 35.846 163.322 34.67C161.592 32.594 158.754 31.556 154.672 31.556C151.349 31.556 148.927 32.041 147.474 33.148C146.09 34.186 145.329 35.362 145.329 36.816C145.329 38.615 146.09 39.861 147.612 40.622C149.135 41.452 154.464 42.836 163.599 44.843C169.689 46.297 174.325 48.442 177.301 51.348C180.346 54.255 181.799 57.923 181.799 62.352C181.799 68.165 179.654 72.871 175.363 76.539C171.003 80.207 164.36 82.006 155.294 82.006C146.09 82.006 139.308 80.068 134.879 76.193C130.519 72.317 128.304 67.335 128.304 61.383H143.875V61.383ZM241.938 63.459C244.36 60.76 245.606 56.469 245.606 50.518C245.606 44.982 244.429 40.691 242.076 37.784C239.723 34.878 236.678 33.424 232.734 33.424C227.404 33.424 223.737 35.916 221.73 40.968C220.692 43.667 220.138 46.988 220.138 50.933C220.138 54.324 220.692 57.369 221.868 60.068C223.875 64.982 227.612 67.473 232.941 67.473C236.471 67.543 239.446 66.158 241.938 63.459V63.459ZM236.748 21.383C240.484 22.906 243.46 25.743 245.744 29.826V21.383H260.761V76.954C260.761 84.497 259.516 90.241 256.955 94.047C252.595 100.691 244.221 103.944 231.834 103.944C224.36 103.944 218.27 102.49 213.564 99.514C208.858 96.608 206.228 92.179 205.744 86.366H222.422C222.837 88.166 223.529 89.411 224.498 90.241C226.159 91.625 228.928 92.317 232.803 92.317C238.27 92.317 242.007 90.449 243.875 86.781C245.121 84.428 245.744 80.483 245.744 74.947V71.21C244.291 73.701 242.699 75.57 240.969 76.816C237.924 79.169 233.979 80.276 229.135 80.276C221.592 80.276 215.64 77.646 211.142 72.386C206.644 67.127 204.429 59.93 204.429 50.933C204.429 42.213 206.574 34.947 210.934 28.996C215.224 23.044 221.384 20.137 229.274 20.137C232.042 20.068 234.602 20.553 236.747 21.383H236.748ZM312.734 24.843C316.54 28.027 318.478 33.286 318.478 40.622V80H302.768V44.43C302.768 41.384 302.353 38.962 301.522 37.37C300 34.394 297.162 32.872 292.942 32.872C287.751 32.872 284.291 35.017 282.352 39.446C281.315 41.799 280.83 44.776 280.83 48.374V80.069H265.536V21.522H280.276V30.104C282.215 27.059 284.083 24.914 285.813 23.599C288.927 21.246 292.941 20.069 297.785 20.069C304.014 20.069 308.927 21.661 312.734 24.844V24.843ZM324.083 22.007H339.654V80H324.083V22.007ZM339.585 14.533H324.083V0.415H339.585V14.533V14.533ZM185.467 22.007H200.969V80H185.467V22.007ZM200.969 14.533H185.467V0.415H200.969V14.533V14.533ZM344.083 32.733V22.008H352.18V5.467H367.405V21.937H376.955V32.664H367.405V63.737C367.405 66.159 367.751 67.612 368.305 68.235C368.927 68.858 370.795 69.135 373.91 69.135C374.394 69.135 374.879 69.135 375.363 69.065C375.848 69.065 376.401 68.997 376.886 68.927V80.415L369.619 80.761C362.353 80.969 357.439 79.792 354.809 76.955C353.079 75.225 352.179 72.526 352.179 68.789V32.734H344.083V32.733ZM390.173 6.99C389.758 6.851 389.135 6.782 388.373 6.782H387.682V10.173H388.858C389.55 10.173 390.104 10.035 390.519 9.758C390.934 9.481 391.142 8.997 391.142 8.374C391.142 7.682 390.796 7.197 390.173 6.99ZM384.637 16.332V4.706H390.31C391.28 4.776 391.971 4.983 392.594 5.329C393.632 5.882 394.186 6.782 394.186 8.097C394.186 9.066 393.909 9.757 393.356 10.173C392.802 10.657 392.11 10.865 391.348 11.003C392.041 11.142 392.663 11.349 393.009 11.696C393.701 12.249 394.047 13.149 394.047 14.326V15.363C394.047 15.433 394.047 15.571 394.117 15.709C394.117 15.848 394.117 15.917 394.186 16.055L394.324 16.401H391.418C391.348 16.055 391.279 15.501 391.21 14.81C391.21 14.118 391.14 13.633 391.002 13.356C390.942 13.1602 390.835 12.9821 390.691 12.8373C390.546 12.6926 390.368 12.5857 390.172 12.526C389.895 12.388 389.618 12.318 389.134 12.318L388.511 12.249H387.888V16.332H384.636H384.637ZM383.045 4.43C381.385 6.16 380.554 8.167 380.554 10.52C380.554 12.942 381.384 15.018 383.114 16.748C384.775 18.478 386.851 19.309 389.204 19.309C391.626 19.309 393.634 18.409 395.294 16.749C396.955 15.019 397.854 12.942 397.854 10.589C397.854 8.236 397.024 6.229 395.364 4.499C393.702 2.769 391.626 1.869 389.204 1.869C386.782 1.8 384.775 2.631 383.045 4.43V4.43ZM396.54 18.063C394.533 20.07 392.042 21.039 389.204 21.039C386.228 21.039 383.737 20.001 381.73 17.994C379.723 15.987 378.685 13.496 378.685 10.52C378.685 7.475 379.792 4.914 381.938 2.908C384.014 0.97 386.436 0.0699997 389.135 0.0699997C392.042 0.0699997 394.464 1.108 396.54 3.184C398.547 5.191 399.654 7.683 399.654 10.589C399.724 13.496 398.685 15.987 396.54 18.063V18.063Z" fill="white"/>
</svg>
