<svg width="400" height="43" viewBox="0 0 400 43" fill="none" xmlns="http://www.w3.org/2000/svg">
<path d="M0.334 19.967V9.616C0.334 8.881 0.467 8.614 1.336 8.614C3.539 8.681 5.743 8.681 8.013 8.614C8.681 8.614 8.948 8.814 8.948 9.482C8.881 11.486 8.948 13.489 8.948 15.492C8.948 16.093 9.148 16.361 9.75 16.294C10.6387 16.2273 11.5313 16.2273 12.42 16.294C13.088 16.294 13.289 16.094 13.289 15.492V9.482C13.289 8.815 13.489 8.614 14.157 8.614C16.361 8.681 18.564 8.614 20.835 8.614C21.503 8.614 21.703 8.748 21.703 9.482V30.451C21.703 31.051 21.503 31.319 20.902 31.252C18.632 31.252 16.427 31.185 14.157 31.252C13.422 31.252 13.289 30.985 13.289 30.317V23.64C13.289 22.906 13.022 22.572 12.287 22.639C11.4427 22.7058 10.5943 22.7058 9.75 22.639C9.215 22.639 9.015 22.839 9.015 23.373V30.251C9.015 30.919 8.815 31.186 8.08 31.186C5.81 31.12 3.54 31.186 1.269 31.186C0.601 31.186 0.467 30.986 0.467 30.318C0.334 26.979 0.334 23.44 0.334 19.968V19.967ZM122.938 19.699L123.74 19.967C125.476 20.367 126.41 21.503 126.745 23.172C127.078 24.975 127.279 26.845 127.545 28.715C127.679 29.382 127.813 30.05 127.947 30.651C128.08 31.119 127.947 31.319 127.479 31.319C125.009 31.319 122.538 31.319 120 31.252C119.8 31.252 119.399 30.852 119.332 30.518C118.998 28.915 118.798 27.312 118.531 25.71C118.464 25.242 118.331 24.775 118.197 24.307C117.797 23.239 116.461 22.571 115.459 22.972C115.259 23.038 115.059 23.506 115.059 23.773C115.059 25.91 114.992 28.113 115.059 30.25C115.059 31.052 114.859 31.252 114.057 31.252C111.853 31.185 109.649 31.252 107.379 31.252C106.711 31.252 106.511 31.119 106.511 30.384V9.416C106.511 8.815 106.711 8.548 107.312 8.614C111.652 8.614 115.993 8.548 120.267 8.681C121.669 8.748 123.139 9.015 124.474 9.549C126.878 10.417 127.412 12.621 127.279 14.758C127.145 17.162 125.743 18.631 123.606 19.366C123.472 19.432 123.272 19.566 122.938 19.699V19.699ZM115.058 15.759V17.496C115.058 17.696 115.192 17.963 115.326 18.03C116.394 18.564 118.531 17.496 118.865 16.36C119.332 14.691 118.397 13.623 116.461 13.49C115.058 13.422 115.058 13.422 115.058 14.825V15.76V15.759ZM93.69 31.453H85.343C84.675 31.453 84.408 31.253 84.275 30.585C84.141 29.851 83.941 29.183 83.875 28.448C83.807 27.914 83.54 27.714 83.006 27.714C81.203 27.781 79.4 27.714 77.664 27.714C77.13 27.714 76.862 27.847 76.729 28.448C76.595 29.317 76.395 30.118 76.128 30.919C76.061 31.119 75.728 31.387 75.527 31.387H67.847C67.781 31.387 67.781 31.32 67.647 31.253C67.847 30.519 68.115 29.851 68.315 29.116C70.452 22.572 72.655 16.028 74.792 9.483C74.992 8.816 75.327 8.615 75.994 8.615H85.811C86.345 8.615 86.612 8.749 86.812 9.283C89.082 16.495 91.353 23.774 93.624 30.986C93.69 31.12 93.69 31.186 93.69 31.453V31.453ZM82.539 22.238C81.871 19.233 81.269 16.295 80.602 13.357H80.335C79.667 16.295 78.999 19.233 78.265 22.238H82.539V22.238ZM145.043 24.175H148.315C148.715 24.175 149.049 24.241 149.049 24.775C149.116 25.644 149.45 26.312 150.319 26.512C151.253 26.712 152.255 26.779 153.056 26.044C153.991 25.176 153.59 23.574 152.322 23.106C150.852 22.572 149.317 22.238 147.781 21.771C146.712 21.437 145.644 21.103 144.642 20.635C140.034 18.632 140.569 12.355 143.774 10.151C145.444 9.016 147.314 8.481 149.25 8.348C151.52 8.148 153.79 8.081 155.994 8.748C158.131 9.417 160.001 10.485 160.468 12.822C160.869 14.826 161.136 14.692 159.066 14.692H154.191C153.591 14.692 153.256 14.559 153.056 13.891C152.789 12.889 151.721 12.488 150.586 12.756C149.65 12.956 149.183 13.624 149.25 14.559C149.317 15.359 149.85 15.694 150.519 15.894C151.921 16.294 153.39 16.562 154.726 17.029C156.128 17.497 157.53 17.964 158.799 18.632C161.203 19.834 161.804 22.238 161.47 24.575C161.003 28.115 158.799 30.118 155.527 30.986C151.721 31.988 147.981 31.921 144.375 30.251C142.038 29.183 140.969 27.246 140.903 24.776C140.903 24.308 141.103 24.041 141.637 24.041C142.772 24.241 143.907 24.175 145.043 24.175V24.175ZM37.663 19.968V9.549C37.663 8.815 37.864 8.614 38.599 8.614H53.824C54.559 8.614 54.759 8.814 54.759 9.549C54.6922 10.8615 54.6922 12.1765 54.759 13.489C54.759 14.09 54.559 14.357 53.958 14.29H47.079C46.412 14.29 46.145 14.49 46.145 15.225C46.145 17.429 46.011 17.028 47.948 17.028H53.29C53.958 17.028 54.158 17.228 54.158 17.896C54.0912 19.2308 54.0912 20.5682 54.158 21.903C54.158 22.504 53.958 22.705 53.357 22.705H47.079C46.345 22.705 46.078 22.905 46.078 23.706C46.145 25.976 45.811 25.71 48.081 25.71H54.091C54.692 25.71 54.959 25.91 54.892 26.51C54.826 27.846 54.892 29.249 54.892 30.584C54.892 31.185 54.692 31.386 54.092 31.386H38.463C37.795 31.386 37.662 31.119 37.662 30.518V19.967L37.663 19.968ZM182.572 8.614H191.453C192.188 8.614 192.388 8.814 192.388 9.549C192.322 10.952 192.388 12.354 192.388 13.689C192.388 14.224 192.188 14.424 191.654 14.424H187.781C187.113 14.424 186.846 14.691 186.846 15.359V30.25C186.846 31.052 186.579 31.319 185.777 31.252C183.551 31.1852 181.324 31.1852 179.099 31.252C178.365 31.252 178.098 31.052 178.098 30.25C178.165 25.309 178.098 20.367 178.165 15.426C178.165 14.624 177.965 14.357 177.163 14.357C175.961 14.424 174.693 14.357 173.49 14.357C172.89 14.357 172.689 14.157 172.689 13.556C172.689 12.154 172.756 10.751 172.689 9.416C172.689 8.748 172.889 8.548 173.557 8.548C176.562 8.681 179.567 8.614 182.572 8.614ZM263.774 13.022C262.772 13.222 261.971 13.422 261.17 13.556C260.903 13.623 260.702 13.689 260.435 13.623C260.168 13.556 259.968 13.356 259.7 13.222C259.9 13.022 260.034 12.688 260.302 12.621C261.236 12.421 262.172 12.221 263.106 12.087C263.774 12.02 264.108 11.687 264.308 11.018C264.776 9.282 265.377 7.613 265.911 5.876C266.111 5.342 266.378 4.942 266.979 4.875C268.249 4.675 268.849 5.275 268.515 6.545C268.115 7.88 267.714 9.215 267.313 10.618C267.246 10.885 267.18 11.085 267.113 11.486C268.181 11.419 269.183 11.286 270.185 11.219C271.053 11.219 271.921 11.219 272.722 11.352C274.992 11.82 276.128 13.289 275.928 15.626C275.393 21.169 272.989 25.843 268.648 29.382C266.645 31.052 264.241 31.853 261.57 31.452C261.103 31.386 260.903 31.586 260.769 31.987C260.101 34.257 259.367 36.527 258.699 38.798C258.365 39.866 258.766 40.468 259.834 40.801L262.038 41.402C262.305 41.469 262.572 41.669 262.839 41.803V42.07C262.439 42.137 262.105 42.337 261.704 42.27C259.099 42.204 256.495 42.07 253.891 41.937C253.357 41.937 252.822 41.937 252.288 41.87C252.088 41.87 251.954 41.67 251.821 41.536C251.954 41.402 252.088 41.136 252.221 41.068C252.421 40.935 252.689 40.935 252.956 40.935C254.492 40.868 255.293 40.067 255.761 38.598C257.564 32.855 259.367 27.045 261.17 21.302C261.971 18.832 262.706 16.361 263.44 13.89C263.574 13.756 263.64 13.49 263.774 13.022V13.022ZM262.238 27.646C262.238 29.316 262.638 29.983 263.574 30.25C264.509 30.45 265.377 30.384 266.178 29.85C266.779 29.382 267.38 28.848 267.848 28.247C270.518 24.775 272.054 20.767 272.856 16.494C273.19 14.624 272.188 13.155 270.385 12.688C269.726 12.5521 269.055 12.4851 268.382 12.488C266.912 12.554 266.712 12.688 266.245 14.157L263.039 24.775C262.706 25.91 262.439 26.978 262.239 27.646H262.238ZM398.665 25.843C398.532 26.177 398.532 26.578 398.332 26.778C396.862 28.848 394.926 30.451 392.522 31.318C391.921 31.519 391.253 31.586 390.652 31.586C389.851 31.586 389.584 31.252 389.717 30.451C389.851 29.783 390.185 29.048 390.452 28.447C392.322 24.441 394.192 20.501 395.994 16.494C396.318 15.7755 396.521 15.0086 396.595 14.224C396.662 13.155 395.861 12.554 394.859 12.954C394.259 13.155 393.657 13.489 393.256 13.957C391.654 15.96 390.118 17.963 388.649 20.1C386.445 23.372 384.309 26.778 382.706 30.384C382.238 31.452 381.837 31.653 380.969 31.519C380.435 31.452 380.101 31.185 380.235 30.584C380.302 30.117 380.435 29.716 380.569 29.249C382.239 24.775 383.908 20.234 385.577 15.759C385.711 15.426 385.844 15.092 385.911 14.758C385.911 14.424 385.911 13.957 385.711 13.756C385.511 13.623 384.976 13.623 384.709 13.756C384.108 14.156 383.574 14.624 383.106 15.159C382.506 15.759 382.038 16.427 381.436 17.029C381.303 17.162 381.103 17.162 380.903 17.229C380.836 17.029 380.769 16.828 380.769 16.561C380.772 16.4371 380.819 16.3183 380.903 16.227C382.171 14.424 383.64 12.755 385.577 11.553C386.044 11.285 386.512 11.085 387.047 11.018C387.914 10.818 388.649 11.352 388.649 12.22C388.649 13.088 388.649 14.023 388.382 14.825C387.647 16.962 386.779 19.098 385.978 21.169C385.844 21.503 385.778 21.836 385.644 22.237C385.711 22.304 385.777 22.304 385.911 22.371C386.178 21.97 386.445 21.569 386.779 21.169C388.249 18.965 389.584 16.628 391.186 14.491C392.054 13.289 393.39 12.421 394.592 11.553C395.126 11.152 395.994 11.018 396.729 11.018C398.999 11.085 400.135 12.621 399.4 14.825C398.866 16.561 398.064 18.164 397.263 19.833C396.061 22.437 394.726 24.975 393.523 27.579C393.39 27.846 393.523 28.247 393.523 28.581C393.857 28.581 394.325 28.715 394.525 28.514C395.527 27.713 396.462 26.844 397.463 26.044C397.731 25.776 398.064 25.576 398.332 25.376C398.532 25.71 398.599 25.776 398.665 25.843V25.843ZM324.609 23.239C324.208 23.639 323.874 24.04 323.473 24.441C321.47 26.644 319.4 28.781 316.929 30.384C315.66 31.185 314.392 31.92 312.923 31.987C311.587 32.053 310.786 31.386 310.585 30.05C310.385 28.514 310.652 27.112 311.253 25.776C313.657 20.701 317.397 17.028 322.539 14.691C323.874 14.091 325.343 13.957 326.812 14.157C328.215 14.357 328.415 14.224 329.082 13.022C329.617 12.02 330.285 11.686 331.353 11.886C332.155 12.02 332.422 12.287 332.088 13.088C331.487 14.558 330.819 15.96 330.151 17.362C328.498 20.9334 326.873 24.5175 325.276 28.114C325.143 28.381 325.21 28.781 325.21 29.048C325.544 29.048 325.944 29.182 326.211 28.982C327.079 28.381 327.881 27.78 328.682 27.045C329.417 26.377 330.084 25.576 330.819 24.841C331.019 24.641 331.353 24.641 331.62 24.508C331.554 24.775 331.62 25.175 331.487 25.376C329.483 27.846 327.213 30.05 324.408 31.519C323.941 31.786 323.273 31.919 322.738 31.919C321.938 31.987 321.47 31.452 321.804 30.718C322.472 28.915 323.206 27.178 323.874 25.376C324.141 24.708 324.542 24.04 324.876 23.306C324.742 23.306 324.676 23.239 324.609 23.239V23.239ZM324.876 15.092C324.342 15.292 323.14 15.626 322.205 16.16C318.865 18.097 316.261 20.835 314.392 24.24C313.924 25.042 313.657 26.043 313.457 26.912C313.19 28.18 313.924 29.115 315.193 28.915C316.128 28.781 317.063 28.381 317.864 27.913C321.337 25.643 324.141 22.771 326.344 19.233C326.679 18.698 326.946 18.03 327.146 17.429C327.68 15.959 327.013 15.092 324.876 15.092V15.092ZM293.223 18.23C293.156 22.705 291.487 26.51 288.215 29.583C286.812 30.918 285.21 31.853 283.206 31.92C281.536 31.987 280.468 31.252 279.734 29.85C278.999 28.247 278.799 26.51 278.866 24.775C278.999 20.835 280.335 17.295 283.073 14.424C284.542 12.888 286.211 11.619 288.415 11.285C290.018 11.018 291.22 11.619 292.088 13.022C293.023 14.624 293.223 16.361 293.223 18.23V18.23ZM280.936 28.314C280.936 29.316 281.069 30.317 282.071 30.784C283.073 31.319 284.074 31.052 284.809 30.25C285.61 29.45 286.345 28.581 286.946 27.58C288.749 24.641 289.884 21.436 290.686 18.097C291.019 16.694 291.42 15.292 291.019 13.823C290.552 12.087 289.283 11.486 287.814 12.487C286.946 13.088 286.078 13.89 285.544 14.757C282.872 18.965 281.537 23.573 280.936 28.314V28.314ZM222.706 25.109C222.906 19.833 224.909 15.426 229.316 12.354C230.385 11.619 231.587 11.152 232.923 11.152C234.458 11.152 235.46 12.02 236.128 13.356C236.929 15.025 237.196 16.895 237.063 18.765C236.796 23.372 234.926 27.245 231.32 30.184C230.051 31.185 228.649 31.854 227.046 31.92C225.376 31.987 224.241 31.319 223.574 29.783C222.839 28.313 222.706 26.778 222.706 25.109V25.109ZM224.709 28.18C224.709 29.382 224.842 30.317 225.911 30.785C226.979 31.252 227.914 30.985 228.716 30.184C229.45 29.449 230.185 28.581 230.719 27.713C232.722 24.441 233.924 20.835 234.792 17.095C235.059 15.893 235.193 14.625 234.726 13.422C234.258 12.287 233.256 11.82 232.121 12.287C231.587 12.487 230.986 12.821 230.652 13.222C229.65 14.558 228.582 15.893 227.847 17.362C226.178 20.902 225.177 24.574 224.709 28.18V28.18ZM362.605 25.175C362.739 19.967 364.742 15.626 369.083 12.555C369.648 12.1384 370.281 11.8218 370.953 11.619C373.49 10.684 375.56 11.619 376.362 14.224C377.497 17.83 377.096 21.369 375.493 24.708C374.225 27.446 372.422 29.783 369.683 31.185C368.816 31.586 367.814 31.853 366.879 31.92C365.276 32.12 364.208 31.319 363.473 29.917C362.873 28.715 362.605 27.312 362.605 25.175ZM374.892 15.425C374.826 14.157 374.826 12.888 373.557 12.354C372.288 11.82 371.287 12.487 370.418 13.356C369.76 14.0892 369.157 14.8703 368.615 15.693C367.217 18.0316 366.202 20.5793 365.61 23.239C365.143 25.042 364.809 26.912 364.675 28.781C364.542 30.651 366.345 31.586 367.948 30.651C368.548 30.251 369.216 29.783 369.55 29.182C370.552 27.646 371.487 26.043 372.221 24.374C373.557 21.503 374.491 18.564 374.892 15.426V15.425ZM302.839 23.305L303.64 21.903C304.976 19.566 306.312 17.229 307.714 14.891C308.314 13.89 309.116 13.021 309.918 12.154C310.318 11.753 310.919 11.419 311.453 11.219C312.723 10.885 313.59 11.486 313.657 12.821C313.657 13.556 313.657 14.357 313.457 15.025C313.323 15.492 312.923 16.027 312.522 16.294C311.654 16.828 310.986 16.427 310.852 15.359C310.786 14.959 310.585 14.558 310.452 14.157C310.052 14.424 309.517 14.557 309.317 14.891C308.115 16.494 306.913 18.097 305.977 19.833C303.974 23.439 302.037 27.112 300.101 30.718C299.901 31.052 299.501 31.452 299.166 31.452C298.231 31.586 297.897 31.119 298.165 30.25C299.433 25.71 300.635 21.169 301.905 16.628C302.038 16.093 302.372 15.426 301.771 15.025C301.17 14.691 300.702 15.292 300.368 15.693C299.634 16.561 298.966 17.496 298.298 18.363C297.964 18.765 297.63 19.098 297.296 19.499C297.23 19.499 297.096 19.432 297.029 19.432C297.029 19.098 296.896 18.765 297.029 18.497C298.565 15.893 300.369 13.422 302.839 11.553C303.039 11.419 303.307 11.285 303.574 11.219C304.509 10.885 305.244 11.285 305.176 12.287C305.043 13.89 304.842 15.492 304.509 17.028C304.108 18.831 303.507 20.634 302.973 22.438C302.906 22.705 302.839 22.905 302.773 23.172C302.706 23.306 302.773 23.306 302.839 23.306V23.305ZM246.612 23.305C246.812 22.972 247.012 22.705 247.146 22.371C248.682 19.766 250.151 17.161 251.687 14.558C252.221 13.689 253.023 12.888 253.757 12.087C254.425 11.352 255.293 10.885 256.362 11.285C256.762 11.419 257.296 11.886 257.363 12.22C257.43 13.222 257.43 14.224 257.23 15.225C257.163 15.626 256.695 16.093 256.295 16.294C255.427 16.761 254.825 16.361 254.692 15.426C254.625 15.226 254.692 15.025 254.625 14.891C254.559 14.624 254.492 14.291 254.291 14.224C254.091 14.157 253.691 14.29 253.557 14.491C252.889 15.225 252.155 15.96 251.687 16.761C249.283 20.968 246.879 25.242 244.475 29.516C244.208 29.916 244.008 30.384 243.807 30.785C243.473 31.72 242.872 31.72 242.205 31.519C241.47 31.252 241.67 30.584 241.804 30.117C243.011 25.654 244.258 21.2018 245.544 16.761C245.677 16.227 246.078 15.559 245.41 15.159C244.742 14.825 244.342 15.426 243.94 15.893C243.14 16.828 242.472 17.83 241.67 18.831C241.403 19.165 241.136 19.366 240.87 19.699C240.802 19.699 240.669 19.633 240.602 19.633C240.602 19.366 240.468 18.965 240.602 18.765C242.138 16.16 243.941 13.756 246.345 11.82C246.612 11.62 246.879 11.486 247.213 11.352C248.148 11.018 248.883 11.419 248.749 12.421C248.482 14.558 248.148 16.761 247.68 18.898C247.413 20.167 246.946 21.368 246.545 22.638C246.478 22.838 246.412 23.105 246.345 23.306C246.478 23.239 246.545 23.306 246.612 23.306V23.305ZM340.902 13.555H338.298C337.764 13.555 337.43 13.555 337.43 12.821C337.43 12.154 337.764 12.02 338.365 12.02C339.233 12.02 340.101 12.087 340.903 12.02C341.17 12.02 341.503 11.753 341.637 11.486C342.171 10.217 342.639 8.948 343.107 7.679C343.44 6.879 344.909 6.477 345.51 7.079C345.71 7.279 345.71 7.746 345.644 8.013C345.31 9.082 344.909 10.083 344.509 11.085C344.442 11.352 344.309 11.619 344.175 12.02H347.647C348.181 12.02 348.515 12.22 348.448 12.821C348.448 13.289 348.248 13.556 347.714 13.556H344.375C343.908 13.556 343.64 13.689 343.44 14.156C341.837 18.431 340.235 22.705 338.632 27.046C338.498 27.312 338.498 27.846 338.632 27.98C338.832 28.18 339.3 28.18 339.567 28.047C340.235 27.713 340.903 27.312 341.437 26.778C342.238 25.977 342.973 25.108 343.774 24.24C343.974 24.04 344.241 23.84 344.509 23.64C344.575 23.706 344.709 23.773 344.776 23.84C344.642 24.24 344.642 24.641 344.442 24.975C342.438 27.846 339.968 30.117 336.896 31.72C336.762 31.786 336.629 31.853 336.496 31.853C335.961 31.786 335.293 31.92 335.026 31.653C334.759 31.453 334.826 30.718 334.959 30.25C335.359 28.915 335.894 27.58 336.362 26.244C337.764 22.371 339.166 18.497 340.502 14.558C340.702 14.224 340.769 13.957 340.902 13.556V13.555ZM357.931 26.311C357.864 26.578 357.797 26.845 357.664 27.045C355.594 29.182 353.39 30.985 350.452 31.786C350.385 31.786 350.318 31.853 350.318 31.853C349.65 31.92 348.849 32.12 348.515 31.453C348.315 30.985 348.382 30.183 348.649 29.649C350.519 25.709 352.522 21.769 354.392 17.896C354.726 17.162 355.126 16.427 355.327 15.626C355.393 15.359 355.26 14.958 355.193 14.558C354.859 14.624 354.525 14.624 354.258 14.825C353.457 15.359 352.655 16.027 351.854 16.561C351.587 16.761 351.387 16.895 351.12 17.028C350.92 17.095 350.719 17.028 350.452 17.028C350.452 16.828 350.452 16.494 350.585 16.361C352.589 14.558 354.525 12.621 357.063 11.553C357.663 11.285 358.265 11.018 358.866 11.553C359.4 12.087 359.4 12.755 359.133 13.423C358.398 15.225 357.597 16.962 356.796 18.765L352.589 27.579C352.522 27.713 352.389 27.846 352.389 28.047C352.389 28.314 352.322 28.781 352.522 28.915C352.655 29.048 353.19 29.048 353.39 28.982C354.458 28.314 355.527 27.579 356.595 26.912C356.996 26.644 357.33 26.444 357.731 26.244C357.797 26.177 357.864 26.244 357.931 26.311V26.311ZM206.145 26.778C206.612 21.836 208.348 17.228 212.088 13.489C213.891 11.686 216.161 10.818 218.698 11.285C219.033 11.352 219.367 11.419 219.7 11.553C220.769 11.953 221.236 12.955 220.903 13.89C220.635 14.624 219.5 14.958 218.565 14.424C217.937 14.0755 217.373 13.6239 216.895 13.088C215.761 12.02 214.959 11.953 213.958 13.088C213.089 14.09 212.355 15.292 211.754 16.494C210.485 19.032 209.617 21.703 209.083 24.508C208.949 25.308 209.016 26.177 209.15 26.978C209.483 28.581 210.819 29.316 212.355 28.715C213.089 28.381 213.757 27.846 214.425 27.312C214.825 26.978 215.16 26.444 215.56 26.043C215.694 25.91 215.96 25.91 216.161 25.977C216.228 26.043 216.361 26.377 216.228 26.511C214.692 28.648 213.023 30.651 210.485 31.653C208.348 32.454 206.745 31.453 206.345 29.048C206.264 28.2927 206.197 27.5359 206.145 26.778V26.778ZM358.397 4.207C357.396 4.207 356.394 3.205 356.394 2.204C356.394 1.202 357.396 0.266998 358.397 0.266998C359.466 0.266998 360.401 1.202 360.401 2.27C360.401 3.272 359.399 4.207 358.397 4.207Z" fill="white"/>
</svg>
