<svg width="399" height="198" viewBox="0 0 399 198" fill="none" xmlns="http://www.w3.org/2000/svg">
<path d="M198.82 11.282C235.798 11.208 268.75 34.604 280.872 69.538L285.863 67.829L290.821 66.119C277.519 26.65 240.528 0.0569996 198.876 0.0219996C157.224 -0.0130004 120.188 26.518 106.821 65.967L116.718 69.727C128.98 34.85 161.85 11.451 198.82 11.282Z" fill="white"/>
<path d="M131.111 108.564L119.145 106.769C113.111 111.35 106.205 108.974 104.017 102.889H133.077V121.692H147.538V112.068C148.042 114.242 149.125 116.239 150.674 117.846C152.222 119.453 154.177 120.61 156.331 121.194C158.485 121.778 160.757 121.767 162.905 121.163C165.053 120.558 166.997 119.383 168.53 117.761C168.569 119.997 168.275 122.226 167.658 124.376C165.504 129.504 158.274 129.504 154.53 126.086L145.983 137.076C148.424 139.195 151.272 140.793 154.352 141.772C157.433 142.751 160.681 143.09 163.897 142.769C169.675 142.188 173.35 141.179 177.744 137.214C180.959 133.777 182.786 129.27 182.872 124.564V77.675H168.7V104.479C168.708 104.951 168.622 105.42 168.447 105.858C168.272 106.296 168.011 106.695 167.68 107.032C167.349 107.368 166.954 107.636 166.519 107.818C166.084 108.001 165.616 108.095 165.145 108.095C164.673 108.095 164.205 108.001 163.77 107.818C163.335 107.636 162.94 107.368 162.609 107.032C162.278 106.695 162.017 106.296 161.842 105.858C161.667 105.42 161.581 104.951 161.589 104.479V77.675H147.537V60.462H133.127V91.522C128.495 81.59 119.725 76.479 108.751 78.017C105.069 78.6665 101.615 80.2488 98.7179 82.6129C95.8211 84.9769 93.5785 88.0438 92.204 91.521C89.469 82.786 83.024 78.154 74.034 77.675C64.494 77.675 57.401 82.342 54.546 91.521C49.726 80.941 40.119 75.812 28.666 78.411C25.5439 79.2502 22.65 80.7792 20.1974 82.8855C17.7448 84.9918 15.7962 87.6215 14.495 90.581V60.461H0.0679932V121.761H14.496V108.085C16.2339 111.937 19.0512 115.203 22.6068 117.488C26.1623 119.772 30.3038 120.977 34.53 120.957C44.274 120.377 50.53 115.829 54.479 107.111V121.795H68.359V95.316C68.889 89.538 77.675 89.368 78.205 95.316V121.761H92.137V107.915C93.5059 111.24 95.6562 114.187 98.4057 116.505C101.155 118.823 104.423 120.444 107.932 121.231C124.462 122.803 131.009 111.436 131.112 108.564H131.111ZM33.949 108.308C32.1444 108.308 30.3803 107.773 28.8796 106.771C27.3789 105.769 26.209 104.344 25.5176 102.677C24.8262 101.01 24.6443 99.176 24.9951 97.4058C25.3458 95.6357 26.2134 94.0092 27.4882 92.7319C28.763 91.4546 30.3877 90.5838 32.1572 90.2296C33.9267 89.8754 35.7614 90.0536 37.4297 90.7417C39.0979 91.4298 40.5247 92.5969 41.5299 94.0957C42.5351 95.5944 43.0734 97.3574 43.077 99.162C43.0773 101.585 42.1162 103.908 40.4049 105.623C38.6935 107.338 36.3716 108.303 33.949 108.308ZM121.47 97.333H103.726C104.246 95.3769 105.398 93.6474 107.002 92.4137C108.607 91.1799 110.574 90.511 112.598 90.511C114.622 90.511 116.589 91.1799 118.194 92.4137C119.798 93.6474 120.95 95.3769 121.47 97.333V97.333ZM393.368 130.291C393.077 130.821 392.888 131.214 392.752 131.487C392.591 131.115 392.414 130.75 392.222 130.393L389.572 125.145H387.385V132.547H388.803V126.274L392 132.547H393.316L396.564 126.359V132.547H398V125.145H396.068L393.368 130.291Z" fill="white"/>
<path d="M198.684 186.205C161.972 186.468 129.087 163.545 116.632 129.009L111.641 130.718L106.684 132.428C120.554 171.302 157.354 197.268 198.63 197.303C239.904 197.337 276.749 171.433 290.684 132.581L280.872 128.838C268.255 163.333 235.414 186.256 198.684 186.205V186.205Z" fill="white"/>
<path d="M377.111 126.034H380.769V132.547H382.256V126.034H385.915V125.145H377.111V126.034Z" fill="white"/>
<path d="M381.726 119.419C387.915 123.915 399.009 119.607 398.821 116.684L398.291 104.547L397.641 105.111C397.077 105.612 396.407 105.978 395.68 106.181C394.953 106.384 394.19 106.418 393.448 106.281C392.706 106.144 392.006 105.84 391.399 105.391C390.793 104.942 390.297 104.361 389.949 103.692C388.581 99.59 389.299 95.145 389.299 90.803H398.119V77.897H389.299V69.094H375.402V91.504C374.301 88.734 372.647 86.218 370.539 84.1105C368.431 82.003 365.915 80.3483 363.145 79.248C351.179 75.008 339.778 80 334.513 91.504C333.714 88.7372 332.311 86.1824 330.404 84.0244C328.497 81.8664 326.134 80.1591 323.487 79.026C311.932 74.974 300.821 79.778 296.803 91.504C293.623 84.137 289.043 80.256 281.145 78.103C276.273 77.0982 271.204 77.7874 266.777 80.0566C262.351 82.3259 258.832 86.0389 256.803 90.581V60.461H242.376V90.581C240.79 87.1876 238.451 84.2003 235.538 81.846C220.752 71.128 201.35 81.846 200.94 99.846V138.051H215.316C215.316 134.205 214.872 119.248 214.872 119.248L216.462 119.915C227.231 122.65 238.205 117.214 242.393 108.803V121.761H256.821V108.803C258.611 113.035 261.696 116.59 265.633 118.959C269.571 121.327 274.158 122.386 278.735 121.983C283.282 122.273 287.077 110.256 287.094 113.59V121.983H296.735L310.752 121.761V95.316C310.752 89.812 319.795 89.333 320.256 94.974C320.359 103.641 320.342 113.316 320.342 121.812H334.512V107.966C336.736 113.415 340.999 117.781 346.393 120.136C357.829 123.863 369.743 122.034 374.205 108.171L362.154 106.222C359.384 110.376 349.487 111.265 346.359 103.009H375.419C375.402 109.726 375.539 114.923 381.726 119.419V119.419ZM223.231 108.564C221.426 108.564 219.661 108.029 218.16 107.026C216.659 106.023 215.489 104.597 214.798 102.929C214.107 101.261 213.926 99.4259 214.278 97.6552C214.631 95.8846 215.5 94.2581 216.777 92.9815C218.053 91.705 219.68 90.8356 221.45 90.4834C223.221 90.1312 225.056 90.312 226.724 91.0028C228.392 91.6937 229.818 92.8637 230.821 94.3648C231.824 95.8658 232.359 97.6306 232.359 99.436C232.346 101.854 231.377 104.169 229.664 105.876C227.95 107.582 225.632 108.543 223.214 108.547L223.231 108.564V108.564ZM276.513 108.564C274.708 108.564 272.943 108.029 271.442 107.026C269.941 106.023 268.771 104.597 268.08 102.929C267.389 101.261 267.208 99.4259 267.56 97.6552C267.913 95.8846 268.782 94.2581 270.059 92.9815C271.335 91.705 272.962 90.8356 274.732 90.4834C276.503 90.1312 278.338 90.312 280.006 91.0028C281.674 91.6937 283.1 92.8637 284.103 94.3648C285.106 95.8658 285.641 97.6306 285.641 99.436C285.632 101.858 284.662 104.178 282.944 105.887C281.227 107.595 278.901 108.552 276.479 108.547L276.513 108.564ZM346.273 96.598C346.821 94.7052 347.969 93.0417 349.545 91.8579C351.12 90.674 353.037 90.0339 355.008 90.0339C356.979 90.0339 358.896 90.674 360.471 91.8579C362.047 93.0417 363.195 94.7052 363.743 96.598H346.24H346.275H346.273Z" fill="white"/>
</svg>
