<svg width="400" height="185" viewBox="0 0 400 185" fill="none" xmlns="http://www.w3.org/2000/svg">
<path d="M71.445 0.204003C71.445 0.204003 65.586 17.571 65.225 17.571C65.225 17.571 61.073 29.371 46.823 29.371H11.751L0.286011 59.262H49.927C49.586 59.262 12.792 161.316 12.792 161.316C12.792 161.316 4.80201 184.217 24.627 184.217H118.346L129.107 154.705H63.497C63.497 154.705 53.429 153.671 56.908 143.58L83.651 70.69C83.651 70.69 88.127 59.261 101.702 59.261H249.578L260.728 29.37H98.898L109.331 0.203003H71.445V0.204003Z" fill="white"/>
<path d="M351.837 72.08C341.073 72.08 335.716 81.071 335.716 81.071C335.716 81.071 323.526 114.747 320.256 123.818C316.967 132.807 327.211 133.703 327.211 133.703H347.504C347.504 133.703 340.711 151.922 340.174 153.305C339.65 154.648 338.845 154.706 338.845 154.706H270.443L259.669 184.218H347.505C360.196 184.218 360.891 177.447 360.891 177.447C360.891 177.447 381.55 121.214 383.621 115.318C385.699 109.418 379.637 108.014 379.637 108.014H358.639C357.068 108.014 357.249 106.938 357.249 106.938C357.249 106.938 361.217 96.204 361.582 94.977C361.948 93.737 363.495 93.737 363.495 93.737L391.049 93.902L399.326 72.08L351.837 72.081V72.08Z" fill="white"/>
<path d="M98.942 116.047L105.408 98.153C106.022 96.603 107.813 95.365 109.539 95.365H125.592C127.317 95.365 128.275 96.602 127.697 98.153L121.213 116.047C120.666 117.593 118.81 118.852 117.081 118.852H101.044C99.355 118.852 98.39 117.593 98.942 116.047V116.047ZM102.053 72.08C96.911 72.08 91.414 75.823 89.748 80.418L70.388 133.863C68.723 138.5 71.507 142.199 76.653 142.199H124.604C129.698 142.199 135.204 138.5 136.867 133.863L156.215 80.418C157.923 75.823 155.07 72.08 149.995 72.08H102.053Z" fill="white"/>
<path d="M274.423 95.366H291.377C293.122 95.366 294.059 96.603 293.531 98.154L287.003 116.048C286.452 117.594 284.627 118.853 282.875 118.853H265.837L274.423 95.366ZM256.006 72.08L215.214 184.217L244.536 184.175L260.016 142.199H292.839C297.924 142.199 303.439 138.5 305.077 133.863L324.447 80.418C326.112 75.823 323.336 72.08 318.201 72.08H256.006Z" fill="white"/>
<path d="M191.787 95.366H208.761C210.473 95.366 211.452 96.603 210.879 98.154L204.347 116.048C203.844 117.594 201.953 118.853 200.266 118.853H183.207L191.787 95.366ZM173.375 72.08L132.58 184.217L161.943 184.175L177.366 142.199H210.166C215.274 142.199 220.803 138.5 222.454 133.863L241.831 80.418C243.482 75.823 240.693 72.08 235.531 72.08H173.375Z" fill="white"/>
</svg>
