<svg width="195" height="37" viewBox="0 0 195 37" fill="none" xmlns="http://www.w3.org/2000/svg">
<path fill-rule="evenodd" clip-rule="evenodd" d="M56.07 2.21V36.09H57.57V2.21H56.07Z" fill="white"/>
<path d="M169.09 11C169.22 11.358 169.47 11.659 169.8 11.85C170.224 12.076 170.7 12.183 171.18 12.16C171.633 12.1678 172.084 12.0933 172.51 11.94C172.943 11.7704 173.356 11.5523 173.74 11.29C174.086 11.0721 174.402 10.8099 174.68 10.51C175.012 10.0716 175.263 9.57707 175.42 9.05C175.629 8.43486 175.737 7.78979 175.74 7.14C175.744 6.82587 175.704 6.51271 175.62 6.21C175.544 5.94133 175.411 5.69227 175.23 5.48C175.012 5.25277 174.74 5.08423 174.44 4.99C174.071 4.85934 173.682 4.79502 173.29 4.8C172.802 4.79828 172.318 4.89699 171.87 5.09C171.43 5.27845 171.016 5.52388 170.64 5.82C170.357 6.02951 170.095 6.26741 169.86 6.53C169.557 6.95627 169.333 7.43399 169.2 7.94C169.005 8.55126 168.904 9.18848 168.9 9.83C168.897 10.232 168.965 10.6314 169.1 11.01L169.09 11ZM170.95 7.53C171.066 6.92722 171.319 6.35922 171.69 5.87C171.816 5.73053 171.971 5.61927 172.143 5.54346C172.315 5.46765 172.502 5.42899 172.69 5.43C172.865 5.42349 173.039 5.45601 173.2 5.5252C173.361 5.59438 173.504 5.6985 173.62 5.83C173.89 6.203 174.019 6.66 173.98 7.12C173.973 7.86699 173.869 8.60988 173.67 9.33C173.564 9.76075 173.406 10.1771 173.2 10.57C173.067 10.8278 172.875 11.0505 172.64 11.22C172.425 11.3568 172.175 11.4264 171.92 11.42C171.735 11.4355 171.548 11.4085 171.375 11.3409C171.201 11.2733 171.046 11.1669 170.92 11.03C170.662 10.6516 170.542 10.1962 170.58 9.74C170.593 8.98551 170.704 8.2359 170.91 7.51L170.95 7.53ZM177.68 5.81H178.68L177.62 11.28C177.464 12.2938 177.24 13.2961 176.95 14.28C176.894 14.469 176.787 14.6387 176.64 14.77C176.529 14.8586 176.392 14.9079 176.25 14.91C176.103 14.9108 175.96 14.8574 175.85 14.76C175.705 14.6193 175.592 14.4487 175.52 14.26H175.29C175.24 14.52 175.18 14.77 175.11 14.99C175.04 15.21 174.94 15.5 174.81 15.87C174.961 15.94 175.124 15.984 175.29 16C175.543 15.994 175.79 15.925 176.01 15.8C176.546 15.4973 177.021 15.0971 177.41 14.62C177.882 14.0708 178.258 13.4452 178.52 12.77C178.92 11.65 179.254 10.509 179.52 9.35L180.29 5.81H182.16C182.215 5.55063 182.292 5.29639 182.39 5.05L182.32 4.93C182.085 4.96656 181.848 4.98993 181.61 5C181.083 5.033 180.75 5.033 180.61 5H180.49C180.601 4.34331 180.745 3.69252 180.92 3.05C180.967 2.86332 181.034 2.68226 181.12 2.51C181.184 2.39455 181.277 2.29796 181.39 2.23C181.495 2.16501 181.616 2.1304 181.74 2.13C181.931 2.14127 182.115 2.20721 182.27 2.32C182.51 2.496 182.714 2.716 182.87 2.97H183.09C183.182 2.33771 183.319 1.71279 183.5 1.1C183.309 1.02361 183.106 0.982934 182.9 0.98C182.665 0.971246 182.431 1.00862 182.21 1.09C181.859 1.28629 181.525 1.51034 181.21 1.76C180.713 2.11668 180.239 2.5041 179.79 2.92C179.549 3.13656 179.343 3.38964 179.18 3.67C179.06 3.94557 178.973 4.23419 178.92 4.53C178.92 4.72 178.85 4.84 178.82 4.92C178.564 5.03273 178.3 5.12632 178.03 5.2C177.71 5.293 177.47 5.37 177.31 5.43L177.24 5.8H177.68V5.81ZM76.07 22.3H74.74C74.7522 22.8715 74.6951 23.4423 74.57 24C74.5552 24.0781 74.5208 24.1512 74.4701 24.2124C74.4194 24.2736 74.354 24.3209 74.28 24.35C73.4676 24.514 72.6376 24.5745 71.81 24.53C71.357 24.53 70.487 24.493 69.2 24.42V22.34C69.2 19.72 69.257 17.91 69.37 16.91L70.96 16.84H72.39C73.1668 16.8305 73.9429 16.8874 74.71 17.01C75.1464 17.0568 75.572 17.175 75.97 17.36C76.0334 17.3913 76.0832 17.4446 76.11 17.51C76.173 17.772 76.204 18.04 76.2 18.31C76.26 19.123 76.29 19.65 76.29 19.89H77.52C77.52 19.223 77.567 18.447 77.66 17.56C77.753 16.673 77.85 15.94 77.95 15.36L77.81 15.15C76.8469 15.0464 75.8787 14.9963 74.91 15L67.63 15.14L62.29 15V16.3C62.89 16.323 63.487 16.38 64.08 16.47C64.233 16.494 64.379 16.548 64.51 16.63C64.5805 16.6975 64.6293 16.7846 64.65 16.88C64.7666 17.4222 64.8236 17.9754 64.82 18.53C64.913 21.197 64.96 22.61 64.96 22.77V29C64.96 29.533 64.933 30.413 64.88 31.64C64.827 32.867 64.787 33.597 64.76 33.83C64.7491 34.1056 64.6774 34.3754 64.55 34.62C64.4929 34.6992 64.4125 34.7586 64.32 34.79C63.652 34.9276 62.972 34.9979 62.29 35V36.25C64.15 36.177 65.51 36.14 66.37 36.14L72.29 36.22V35C71.4919 34.9713 70.6967 34.8878 69.91 34.75C69.758 34.708 69.6243 34.6165 69.53 34.49C69.3647 33.949 69.2838 33.3857 69.29 32.82C69.23 31.86 69.2 30.193 69.2 27.82V26.11H70.41C71.59 26.084 72.77 26.15 73.94 26.31C74.0452 26.3182 74.1476 26.3482 74.2405 26.3981C74.3335 26.4481 74.4151 26.5168 74.48 26.6C74.6883 27.3411 74.7761 28.111 74.74 28.88H76.07V22.3ZM84.49 36.08C85.157 36.08 86.317 36.1 87.97 36.14L91.53 36.22C92.823 36.22 93.777 36.193 94.39 36.14C94.6935 36.12 94.9947 36.0732 95.29 36C95.29 35.807 95.337 35.233 95.43 34.28L95.81 31.22V30.72H94.58C94.387 31.693 94.19 32.567 93.99 33.34C93.9464 33.5438 93.8576 33.7352 93.73 33.9C93.4997 34.0168 93.2478 34.0849 92.99 34.1C91.6654 34.2911 90.3282 34.3814 88.99 34.37C88.483 34.37 87.533 34.333 86.14 34.26V31.68V27.39V23.02C86.14 21.327 86.163 19.923 86.21 18.81C86.1885 18.1822 86.2153 17.5537 86.29 16.93C86.3297 16.8035 86.4153 16.6965 86.53 16.63C87.2087 16.4334 87.9136 16.3423 88.62 16.36V15C86.973 15.073 85.233 15.11 83.4 15.11C81.753 15.11 80.29 15.073 79.01 15V16.33C79.7949 16.295 80.5798 16.3965 81.33 16.63C81.439 16.6865 81.5215 16.7834 81.56 16.9C81.71 17.98 81.774 19.07 81.75 20.16V26.07C81.75 28.243 81.73 30.103 81.69 31.65C81.65 33.197 81.603 34.097 81.55 34.35C81.5418 34.4118 81.5177 34.4703 81.48 34.52C81.3622 34.6435 81.2234 34.7451 81.07 34.82C80.7161 35.0397 80.3487 35.2367 79.97 35.41V36.19C81.97 36.097 83.473 36.05 84.48 36.05L84.49 36.08ZM97.55 31.88C98.4393 33.4484 99.7763 34.7158 101.39 35.52C103.215 36.3887 105.22 36.8136 107.24 36.76C109.154 36.7986 111.057 36.4588 112.84 35.76C114.035 35.2522 115.119 34.5149 116.03 33.59C116.952 32.6694 117.677 31.5703 118.16 30.36C118.831 28.6811 119.171 26.8881 119.16 25.08C119.16 24.0422 119.036 23.0082 118.79 22C118.578 21.104 118.242 20.2422 117.79 19.44C116.666 17.5862 114.94 16.1743 112.9 15.44C111.288 14.9073 109.598 14.6471 107.9 14.67C106.164 14.6525 104.437 14.9228 102.79 15.47C101.492 15.935 100.305 16.6676 99.3078 17.6202C98.3104 18.5728 97.5241 19.7242 97 21C96.4104 22.5406 96.1252 24.1808 96.16 25.83C96.085 27.9177 96.5646 29.988 97.55 31.83V31.88ZM101.55 20.49C101.941 19.2437 102.736 18.1634 103.81 17.42C104.935 16.717 106.245 16.3686 107.57 16.42C108.645 16.3718 109.714 16.5954 110.68 17.07C111.481 17.54 112.165 18.1863 112.68 18.96C113.293 19.8744 113.74 20.89 114 21.96C114.319 23.2283 114.474 24.5323 114.46 25.84C114.507 27.631 114.219 29.415 113.61 31.1C113.189 32.3393 112.374 33.4068 111.29 34.14C110.26 34.7535 109.079 35.0685 107.88 35.05C106.619 35.0669 105.379 34.7197 104.31 34.05C103.167 33.2405 102.301 32.0988 101.83 30.78C101.116 28.9146 100.776 26.9267 100.83 24.93C100.811 23.4047 101.048 21.8871 101.53 20.44L101.55 20.49ZM121.29 16.6C121.388 16.6622 121.465 16.7529 121.51 16.86C121.659 17.607 121.719 18.3689 121.69 19.13L121.77 22.33V27.95L121.65 32.37C121.638 32.9692 121.588 33.5671 121.5 34.16C121.488 34.3079 121.444 34.4514 121.37 34.58C121.303 34.6577 121.211 34.7105 121.11 34.73C120.45 34.8454 119.78 34.9022 119.11 34.9V36.23C120.443 36.157 121.9 36.12 123.48 36.12C125.247 36.12 126.99 36.157 128.71 36.23V34.89C128.122 34.8943 127.534 34.8642 126.95 34.8C126.794 34.7766 126.645 34.7222 126.51 34.64C126.426 34.584 126.358 34.5085 126.31 34.42C126.196 34.0644 126.139 33.6933 126.14 33.32C126.14 33.04 126.11 31.86 126.05 29.78V24.97C126.05 24.01 126.08 22.103 126.14 19.25C126.14 17.977 126.17 17.157 126.23 16.79C126.706 16.7094 127.187 16.6692 127.67 16.67C128.434 16.6335 129.199 16.711 129.94 16.9C130.608 17.1526 131.184 17.6025 131.59 18.19C132.056 18.872 132.29 19.685 132.26 20.51C132.271 21.382 132.05 22.2412 131.62 23C131.273 23.6634 130.728 24.2019 130.06 24.54C129.186 24.8667 128.25 24.9931 127.32 24.91L127.15 25.41C127.512 25.694 127.829 26.031 128.09 26.41C128.757 27.29 129.543 28.497 130.45 30.03L133.69 35.37C133.847 35.64 133.968 35.929 134.05 36.23C134.85 36.19 135.653 36.17 136.46 36.17C137.127 36.17 138.25 36.19 139.83 36.23V34.89C139.492 34.9066 139.154 34.8661 138.83 34.77C138.641 34.6806 138.471 34.5549 138.33 34.4C138.157 34.22 137.693 33.63 136.94 32.63L135.94 31.13L133.59 27.63L133.42 27.34C133.36 27.24 133.18 26.96 132.85 26.48C132.52 26 132.24 25.55 131.99 25.1C133.359 24.6561 134.574 23.8304 135.49 22.72C136.232 21.7688 136.633 20.5963 136.63 19.39C136.659 18.4477 136.366 17.5237 135.8 16.77C135.304 16.0929 134.603 15.5946 133.8 15.35C132.633 15.0825 131.436 14.9682 130.24 15.01C129.42 15.01 128.387 15.04 127.14 15.1C126.38 15.147 125.473 15.17 124.42 15.17H121.54L119.12 15.1V16.3C119.87 16.3022 120.616 16.4031 121.34 16.6H121.29ZM145.44 15.14C143.793 15.14 142.333 15.103 141.06 15.03V16.36C141.702 16.3648 142.343 16.4082 142.98 16.49C143.113 16.5132 143.238 16.5719 143.34 16.66C143.415 16.7454 143.467 16.8488 143.49 16.96C143.6 17.759 143.66 18.564 143.67 19.37V29.58C143.67 30.613 143.63 31.733 143.55 32.94C143.5 33.77 143.46 34.24 143.43 34.36C143.407 34.4518 143.359 34.5352 143.29 34.6C143.164 34.6931 143.016 34.7517 142.86 34.77C142.7 34.77 142.093 34.807 141.04 34.88V36.21C142.489 36.1321 143.939 36.0954 145.39 36.1C147.263 36.1 149.02 36.137 150.66 36.21V34.89C150.055 34.8947 149.451 34.8613 148.85 34.79C148.685 34.764 148.528 34.7026 148.39 34.61C148.286 34.526 148.212 34.4101 148.18 34.28C148.049 33.6219 147.999 32.9503 148.03 32.28V23.38C148.03 23.187 148.05 21.853 148.09 19.38V17.89C148.092 17.5512 148.143 17.2145 148.24 16.89C148.27 16.7911 148.329 16.7038 148.41 16.64C148.533 16.555 148.673 16.4971 148.82 16.47C149.427 16.3956 150.038 16.3589 150.65 16.36V15C149.003 15.073 147.257 15.11 145.41 15.11L145.44 15.14ZM157.15 36.14L161.64 36.25C163.404 36.288 165.163 36.0622 166.86 35.58C168.324 35.1143 169.683 34.3669 170.86 33.38C172.104 32.3486 173.098 31.0496 173.77 29.58C174.498 27.9588 174.86 26.197 174.83 24.42C174.846 22.9953 174.606 21.5794 174.12 20.24C173.828 19.4669 173.405 18.7498 172.87 18.12C172.301 17.4471 171.626 16.8727 170.87 16.42C169.997 15.9288 169.047 15.5906 168.06 15.42C166.644 15.1736 165.207 15.0631 163.77 15.09C162.99 15.09 161.957 15.107 160.67 15.14C158.883 15.2 157.667 15.23 157.02 15.23L151.57 15V16.22C152.663 16.36 153.297 16.45 153.47 16.49C153.611 16.5136 153.742 16.5759 153.85 16.67C153.906 16.7298 153.947 16.8017 153.97 16.88C154.115 17.783 154.182 18.696 154.17 19.61C154.223 22.183 154.25 24.137 154.25 25.47V28C154.25 31.04 154.193 33.237 154.08 34.59C153.76 34.833 153.426 35.056 153.08 35.26L152.66 35.5V36.23L157.24 36.12L157.15 36.14ZM158.46 28.43V24.93C158.46 20.97 158.513 18.277 158.62 16.85C159.471 16.7226 160.33 16.6557 161.19 16.65C162.752 16.5828 164.315 16.7651 165.82 17.19C166.809 17.5328 167.685 18.1418 168.35 18.95C169.026 19.7761 169.517 20.7378 169.79 21.77C170.084 22.8588 170.232 23.9821 170.23 25.11C170.239 26.3009 170.091 27.4877 169.79 28.64C169.539 29.6415 169.123 30.5945 168.56 31.46C168.12 32.1523 167.557 32.7589 166.9 33.25C166.291 33.6683 165.614 33.9795 164.9 34.17C163.734 34.467 162.533 34.6082 161.33 34.59C160.428 34.5845 159.528 34.5042 158.64 34.35C158.533 33.39 158.48 31.41 158.48 28.41L158.46 28.43ZM175.63 36.14L179.12 36.25V35C178.39 35.0323 177.66 34.941 176.96 34.73C176.878 34.6738 176.813 34.597 176.771 34.5074C176.729 34.4178 176.711 34.3186 176.72 34.22C176.868 33.33 177.12 32.461 177.47 31.63L178.13 29.82H185.94L187.29 33.1C187.475 33.491 187.593 33.91 187.64 34.34C187.647 34.4262 187.629 34.5126 187.588 34.5889C187.547 34.6651 187.486 34.728 187.41 34.77C186.715 34.9323 186.003 35.0096 185.29 35V36.25L190.6 36.14L194.81 36.25V35L194.14 34.93C193.844 34.9212 193.549 34.8843 193.26 34.82C193.146 34.7814 193.04 34.7202 192.95 34.64C192.832 34.5271 192.734 34.3953 192.66 34.25L192.05 32.86L191.11 30.79L184.39 14.94H182.23L180.9 18.38L176.95 28.13C176.451 29.3685 175.948 30.6052 175.44 31.84C175.11 32.6116 174.777 33.3816 174.44 34.15C174.352 34.3175 174.237 34.4695 174.1 34.6C173.983 34.6974 173.847 34.769 173.7 34.81C173.217 34.895 172.73 34.948 172.24 34.97V36.22L175.71 36.11L175.63 36.14ZM181.99 20.2L185.23 28H178.88L182 20.17L181.99 20.2ZM63.08 2.81C63.1665 2.85224 63.2393 2.91811 63.29 3C63.34 3.131 63.367 3.27 63.37 3.41V9.07C63.4524 9.65192 63.7526 10.1809 64.21 10.55C64.5069 10.7835 64.8466 10.9568 65.21 11.06C65.7935 11.2367 66.4003 11.3244 67.01 11.32C67.4993 11.3263 67.9871 11.2658 68.46 11.14C68.8536 11.0339 69.2235 10.8541 69.55 10.61C69.8483 10.3962 70.1 10.124 70.29 9.81C70.462 9.50044 70.574 9.16115 70.62 8.81C70.6731 8.41891 70.6998 8.02468 70.7 7.63V6.1V4.3C70.7064 3.86464 70.7432 3.43025 70.81 3C70.8287 2.92548 70.8708 2.85891 70.93 2.81C71.1665 2.72351 71.419 2.68939 71.67 2.71V2.2L70.29 2.24H68.74V2.72C69.0487 2.70829 69.3569 2.75233 69.65 2.85C69.7166 2.88006 69.7699 2.9334 69.8 3C69.873 3.328 69.903 3.664 69.89 4V7.3C69.932 7.92168 69.8573 8.54573 69.67 9.14C69.5087 9.4727 69.2461 9.74576 68.92 9.92C68.4841 10.1409 67.9981 10.2443 67.51 10.22C67.0926 10.2301 66.6776 10.1553 66.29 10C65.9922 9.87782 65.7354 9.67313 65.55 9.41C65.367 9.10741 65.2638 8.76334 65.25 8.41V4.8C65.2149 4.2199 65.2283 3.63788 65.29 3.06C65.2948 3.0162 65.3089 2.97392 65.3313 2.93598C65.3537 2.89805 65.3839 2.86532 65.42 2.84C65.6969 2.73367 65.9946 2.69261 66.29 2.72V2.2H65.17L64.29 2.24L62.29 2.2V2.72L63.12 2.81H63.08ZM74.37 11.08H77.42V10.54H77.29C77.0892 10.5341 76.889 10.5175 76.69 10.49C76.6152 10.4849 76.5429 10.4608 76.48 10.42C76.4389 10.3897 76.4076 10.348 76.39 10.3C76.3362 10.003 76.3094 9.7018 76.31 9.4V4.2C78.817 7.26 80.753 9.553 82.12 11.08L83.21 11.24L83.29 11.19C83.23 10.59 83.2 8.883 83.2 6.07V4.4C83.1794 3.91153 83.2095 3.42224 83.29 2.94C83.2992 2.89873 83.3244 2.86277 83.36 2.84C83.66 2.746 83.976 2.708 84.29 2.73V2.2H81.29V2.73C81.629 2.7 81.97 2.745 82.29 2.86C82.3645 2.94575 82.4038 3.05649 82.4 3.17C82.453 3.57 82.48 4.903 82.48 7.17V8.64C81.893 8.033 81.153 7.197 80.26 6.13C79.1635 4.84454 78.0966 3.5342 77.06 2.2H74.37V2.73C74.641 2.74 74.912 2.766 75.18 2.81C75.2546 2.82416 75.3239 2.85878 75.38 2.91C75.4268 2.97153 75.4577 3.04366 75.47 3.12C75.486 3.32 75.486 3.52 75.47 3.72V8.94C75.437 9.56 75.407 9.95 75.38 10.11C75.372 10.1951 75.3446 10.2771 75.3 10.35C75.2677 10.3867 75.2263 10.4143 75.18 10.43C74.895 10.471 74.6078 10.4944 74.32 10.5V11.04L74.37 11.08ZM89 2.24H87.17V2.76C87.437 2.76 87.705 2.777 87.97 2.81C88.0254 2.81931 88.0773 2.8435 88.12 2.88C88.1513 2.91714 88.1721 2.96206 88.18 3.01C88.237 3.337 88.274 3.668 88.29 4V8.3C88.29 8.733 88.27 9.203 88.23 9.71V10.31C88.2204 10.3486 88.1995 10.3834 88.17 10.41C88.117 10.4484 88.055 10.4726 87.99 10.48H87.23V11.04H91.26V10.52C91.0069 10.5361 90.7531 10.5361 90.5 10.52C90.4209 10.4986 90.3486 10.4573 90.29 10.4C90.2455 10.3645 90.2138 10.3153 90.2 10.26C90.1449 9.98023 90.1248 9.69472 90.14 9.41V5.7V4.02V3.4C90.1387 3.26503 90.1555 3.1305 90.19 3C90.2067 2.94863 90.2425 2.90565 90.29 2.88C90.3411 2.84496 90.399 2.8211 90.46 2.81C90.7164 2.79417 90.9736 2.79417 91.23 2.81V2.2H89.03L89 2.24ZM99.14 11.12C99.4 10.4 99.893 9.167 100.62 7.42L101.48 5.42L101.93 4.37C102.104 3.85983 102.346 3.37547 102.65 2.93C102.881 2.84487 103.124 2.80087 103.37 2.8V2.2H100.39V2.76H101.32C101.357 2.77778 101.388 2.80548 101.41 2.84C101.424 2.89241 101.424 2.94759 101.41 3C101.415 3.04989 101.415 3.10011 101.41 3.15C101.37 3.323 101.253 3.657 101.06 4.15C100.913 4.5513 100.763 4.95131 100.61 5.35L99.2 8.84L97.6 5V4.88L97.29 4.27C97.1049 3.88376 96.964 3.47786 96.87 3.06C96.8649 3.00216 96.8829 2.94465 96.92 2.9C96.973 2.85176 97.0391 2.82043 97.11 2.81C97.3641 2.76477 97.622 2.74467 97.88 2.75V2.2H93.75V2.76C94.018 2.74485 94.2863 2.78222 94.54 2.87C94.703 3.027 94.829 3.219 94.91 3.43C95.07 3.75 95.503 4.75 96.21 6.43L97.11 8.58L98.11 11.11H99.11L99.14 11.12ZM108.29 11H111.37C111.753 11.02 112.137 11.02 112.52 11L112.6 10.92C112.61 10.228 112.657 9.53704 112.74 8.85H112.29C112.244 9.23964 112.164 9.62446 112.05 10C112.035 10.0439 112.007 10.0822 111.97 10.11C111.743 10.195 111.502 10.239 111.26 10.24H108.79V6.85C109.123 6.83173 109.457 6.83173 109.79 6.85C110.168 6.84483 110.546 6.86823 110.92 6.92C111.03 6.93 111.128 6.99 111.19 7.08C111.285 7.373 111.319 7.683 111.29 7.99H111.8V5.21H111.29C111.293 5.47935 111.263 5.74804 111.2 6.01C111.186 6.06226 111.154 6.10808 111.11 6.14C110.978 6.16316 110.842 6.16316 110.71 6.14H108.81V4.82C108.805 4.20879 108.835 3.59781 108.9 2.99H110.05C110.461 2.99034 110.872 3.01371 111.28 3.06C111.455 3.0634 111.627 3.09725 111.79 3.16C111.831 3.19296 111.859 3.23882 111.87 3.29C111.914 3.595 111.934 3.902 111.93 4.21H112.42L112.48 3.29L112.6 2.37V2.29L112.29 2.2H105.83V2.74C106.14 2.737 106.45 2.774 106.75 2.85C106.794 2.87004 106.83 2.9056 106.85 2.95C106.92 3.238 106.95 3.534 106.94 3.83V7.92C106.94 8.253 106.923 8.783 106.89 9.51C106.89 9.91 106.89 10.2 106.83 10.37C106.638 10.517 106.43 10.64 106.21 10.74V11.08L108.29 11ZM116.64 2.82C116.681 2.84625 116.712 2.88475 116.73 2.93C116.798 3.259 116.825 3.595 116.81 3.93V7.6L116.76 9.45C116.756 9.70104 116.736 9.95157 116.7 10.2C116.697 10.263 116.68 10.3246 116.65 10.38C116.621 10.4113 116.582 10.4323 116.54 10.44C116.259 10.488 115.975 10.5114 115.69 10.51V11.07H119.71V10.52C119.464 10.5344 119.216 10.5344 118.97 10.52C118.906 10.5088 118.845 10.485 118.79 10.45C118.757 10.4267 118.729 10.3958 118.71 10.36C118.664 10.2111 118.64 10.056 118.64 9.9V8.41V6.41V4.01V3.01C118.838 2.97656 119.039 2.95984 119.24 2.96C119.577 2.94062 119.914 2.97437 120.24 3.06C120.52 3.166 120.76 3.354 120.93 3.6C121.13 3.894 121.229 4.245 121.21 4.6C121.207 4.95089 121.114 5.2951 120.94 5.6C120.797 5.87976 120.57 6.10725 120.29 6.25C119.924 6.389 119.53 6.44369 119.14 6.41L119.07 6.62C119.22 6.739 119.352 6.88 119.46 7.04C119.733 7.407 120.067 7.913 120.46 8.56L121.82 10.8C121.885 10.913 121.935 11.034 121.97 11.16H124.39V10.52C124.255 10.5251 124.12 10.5082 123.99 10.47C123.91 10.4316 123.838 10.3771 123.78 10.31C123.707 10.237 123.513 9.99 123.2 9.57L122.77 8.94L121.77 7.47L121.7 7.35L121.5 7C121.37 6.8 121.24 6.61 121.14 6.42C121.712 6.23252 122.219 5.88558 122.6 5.42C122.913 5.02 123.082 4.527 123.08 4.02C123.092 3.62419 122.968 3.23616 122.73 2.92C122.521 2.63748 122.227 2.43041 121.89 2.33C121.402 2.21862 120.901 2.17156 120.4 2.19H115.75V2.72C116.064 2.722 116.377 2.766 116.68 2.85L116.64 2.82ZM133.03 3.45C133.058 3.1778 133.102 2.90738 133.16 2.64L133.11 2.49C132.761 2.32465 132.391 2.20693 132.01 2.14C131.581 2.05959 131.146 2.01942 130.71 2.02C130.286 2.01865 129.863 2.06562 129.45 2.16C129.058 2.24813 128.685 2.40743 128.35 2.63C128.01 2.86538 127.737 3.1861 127.56 3.56C127.359 3.96715 127.256 4.41587 127.26 4.87C127.259 5.19434 127.316 5.51623 127.43 5.82C127.537 6.10479 127.708 6.3613 127.93 6.57C128.182 6.796 128.484 6.96 128.81 7.05C129.05 7.123 129.553 7.24 130.32 7.4C130.706 7.47487 131.082 7.59573 131.44 7.76C131.64 7.862 131.804 8.022 131.91 8.22C132.016 8.434 132.067 8.671 132.06 8.91C132.065 9.20681 131.993 9.49986 131.85 9.76C131.691 10.0269 131.448 10.2341 131.16 10.35C130.819 10.4965 130.451 10.5682 130.08 10.56C129.635 10.5646 129.196 10.4616 128.8 10.26C128.465 10.1104 128.178 9.87172 127.97 9.57C127.919 9.19217 127.896 8.81119 127.9 8.43H127.39C127.411 9.16868 127.344 9.90726 127.19 10.63C127.617 10.8445 128.067 11.0121 128.53 11.13C128.986 11.234 129.452 11.2843 129.92 11.28C130.543 11.2969 131.165 11.1951 131.75 10.98C132.09 10.842 132.403 10.65 132.68 10.41C132.967 10.1724 133.207 9.88429 133.39 9.56C133.623 9.12 133.74 8.628 133.73 8.13C133.734 7.84874 133.693 7.56862 133.61 7.3C133.544 7.07687 133.439 6.86705 133.3 6.68C133.162 6.50593 132.993 6.35995 132.8 6.25C132.539 6.10591 132.26 5.99824 131.97 5.93L131.12 5.77L130.12 5.58C129.865 5.52114 129.619 5.4269 129.39 5.3C129.227 5.20224 129.095 5.06001 129.01 4.89C128.912 4.67694 128.864 4.44437 128.87 4.21C128.873 4.01948 128.916 3.83174 128.997 3.6593C129.078 3.48686 129.195 3.33369 129.34 3.21C129.714 2.89684 130.193 2.73931 130.68 2.77C131.055 2.76572 131.426 2.84069 131.77 2.99C132.036 3.09 132.27 3.26 132.45 3.48C132.49 3.812 132.51 4.146 132.51 4.48H133.04C133.04 4.05 133.04 3.7 133.1 3.48L133.03 3.45ZM138.67 2.22H136.84V2.76C137.107 2.76069 137.375 2.77738 137.64 2.81C137.695 2.81931 137.747 2.8435 137.79 2.88C137.821 2.91714 137.842 2.96206 137.85 3.01C137.898 3.34133 137.924 3.67532 137.93 4.01V8.3C137.93 8.733 137.913 9.203 137.88 9.71V10.31C137.87 10.3486 137.849 10.3834 137.82 10.41C137.767 10.4484 137.705 10.4726 137.64 10.48H136.88V11.04H140.91V10.52C140.657 10.5361 140.403 10.5361 140.15 10.52C140.082 10.5074 140.017 10.4801 139.96 10.44C139.915 10.405 139.883 10.3556 139.87 10.3C139.815 10.0202 139.795 9.73472 139.81 9.45V5.7V4.02V3.4C139.819 3.26368 139.845 3.12913 139.89 3C139.903 2.96073 139.928 2.92606 139.96 2.9C140.011 2.86522 140.069 2.84139 140.13 2.83C140.383 2.81453 140.637 2.81453 140.89 2.83V2.2H138.69L138.67 2.22ZM147.51 11C148.077 11 148.77 11.017 149.59 11.05V10.56C149.283 10.5702 148.976 10.5331 148.68 10.45C148.633 10.4254 148.592 10.3913 148.56 10.35C148.527 10.3087 148.503 10.261 148.49 10.21C148.423 9.66271 148.4 9.11099 148.42 8.56V4.76V3.02H149.33C149.817 3.02 150.233 3.037 150.58 3.07C150.646 3.05428 150.714 3.05428 150.78 3.07C150.828 3.15238 150.855 3.24493 150.86 3.34C150.907 3.651 150.934 3.965 150.94 4.28H151.46V2.89C151.471 2.66227 151.495 2.43529 151.53 2.21L151.47 2.15H143.45L143.39 2.21C143.39 2.423 143.41 2.623 143.45 2.81C143.49 2.997 143.49 3.487 143.45 4.28H143.97C143.977 3.945 144.01 3.61 144.07 3.28C144.075 3.20057 144.103 3.12427 144.15 3.06C144.225 3.02549 144.307 3.0084 144.39 3.01H146.51V8.55C146.53 9.09766 146.507 9.64607 146.44 10.19C146.427 10.2426 146.404 10.2919 146.371 10.335C146.339 10.378 146.297 10.4138 146.25 10.44C145.953 10.5179 145.647 10.5516 145.34 10.54V11.06C146.12 11.027 146.813 11.01 147.42 11.01L147.51 11ZM157.91 4.62C157.636 4.07521 157.328 3.54757 156.99 3.04C156.848 2.81419 156.684 2.60314 156.5 2.41C156.33 2.25133 156.142 2.11367 155.94 2L155.24 2.17L153.89 2.44V3C154.076 2.97535 154.264 2.97535 154.45 3C154.618 3.116 154.769 3.254 154.9 3.41C155.271 3.8413 155.606 4.30291 155.9 4.79C156.353 5.497 156.78 6.213 157.18 6.94C157.296 7.12388 157.377 7.32716 157.42 7.54V9.98C157.423 10.1101 157.399 10.2395 157.35 10.36C157.306 10.4115 157.246 10.4468 157.18 10.46C156.898 10.4977 156.614 10.5177 156.33 10.52V11.08H160.45V10.52C160.169 10.526 159.888 10.5093 159.61 10.47C159.537 10.4547 159.47 10.4161 159.42 10.36C159.359 10.221 159.325 10.0717 159.32 9.92C159.3 9.53 159.3 9.14 159.32 8.75V7.66C159.305 7.50034 159.305 7.33965 159.32 7.18C159.36 7.013 159.42 6.852 159.5 6.7C159.64 6.433 160.007 5.833 160.6 4.9C161.193 3.967 161.757 3.16 162.29 2.48V2.2H161.29C161.23 2.32 161.08 2.59 160.85 2.99L159.65 5.11L158.85 6.4C158.75 6.18 158.453 5.593 157.96 4.64L157.91 4.62Z" fill="#004B93"/>
<path fill-rule="evenodd" clip-rule="evenodd" d="M36.21 30.38V21.71H44.2V15.99H36.21V7.89H44.98V11.03H50.77V2.22H27.59V7.89H29.77V30.38H27.6V36.1H38.3V30.38H36.21ZM24.58 23.29V7.89H26.72V2.22H16.01V7.89H18.1V21.38C18.1 27.04 17.45 29.75 13.39 29.75C9.33 29.75 8.67 27 8.67 21.38V7.89H10.74V2.22H0V7.89H2.13V23.29C2.13 26.66 2.13 29.41 3.72 31.89C5.49 34.69 8.72 36.48 13.38 36.48C21.64 36.48 24.58 32.17 24.58 23.29V23.29ZM56.07 2.21V36.09H57.57V2.21H56.07Z" fill="white"/>
<path d="M169.09 11C169.22 11.358 169.47 11.659 169.8 11.85C170.224 12.076 170.7 12.183 171.18 12.16C171.633 12.1678 172.084 12.0933 172.51 11.94C172.943 11.7704 173.356 11.5523 173.74 11.29C174.086 11.0721 174.402 10.8099 174.68 10.51C175.012 10.0716 175.263 9.57707 175.42 9.05C175.629 8.43486 175.737 7.78979 175.74 7.14C175.744 6.82587 175.704 6.51271 175.62 6.21C175.544 5.94133 175.411 5.69227 175.23 5.48C175.012 5.25277 174.74 5.08423 174.44 4.99C174.071 4.85934 173.682 4.79502 173.29 4.8C172.802 4.79828 172.318 4.89699 171.87 5.09C171.43 5.27845 171.016 5.52388 170.64 5.82C170.357 6.02951 170.095 6.26741 169.86 6.53C169.557 6.95627 169.333 7.43399 169.2 7.94C169.005 8.55126 168.904 9.18848 168.9 9.83C168.897 10.232 168.965 10.6314 169.1 11.01L169.09 11ZM170.95 7.53C171.066 6.92722 171.319 6.35922 171.69 5.87C171.816 5.73053 171.971 5.61927 172.143 5.54346C172.315 5.46765 172.502 5.42899 172.69 5.43C172.865 5.42349 173.039 5.45601 173.2 5.5252C173.361 5.59438 173.504 5.6985 173.62 5.83C173.89 6.203 174.019 6.66 173.98 7.12C173.973 7.86699 173.869 8.60988 173.67 9.33C173.564 9.76075 173.406 10.1771 173.2 10.57C173.067 10.8278 172.875 11.0505 172.64 11.22C172.425 11.3568 172.175 11.4264 171.92 11.42C171.735 11.4355 171.548 11.4085 171.375 11.3409C171.201 11.2733 171.046 11.1669 170.92 11.03C170.662 10.6516 170.542 10.1962 170.58 9.74C170.593 8.98551 170.704 8.2359 170.91 7.51L170.95 7.53ZM177.68 5.81H178.68L177.62 11.28C177.464 12.2938 177.24 13.2961 176.95 14.28C176.894 14.469 176.787 14.6387 176.64 14.77C176.529 14.8586 176.392 14.9079 176.25 14.91C176.103 14.9108 175.96 14.8574 175.85 14.76C175.705 14.6193 175.592 14.4487 175.52 14.26H175.29C175.24 14.52 175.18 14.77 175.11 14.99C175.04 15.21 174.94 15.5 174.81 15.87C174.961 15.94 175.124 15.984 175.29 16C175.543 15.994 175.79 15.925 176.01 15.8C176.546 15.4973 177.021 15.0971 177.41 14.62C177.882 14.0708 178.258 13.4452 178.52 12.77C178.92 11.65 179.254 10.509 179.52 9.35L180.29 5.81H182.16C182.215 5.55063 182.292 5.29639 182.39 5.05L182.32 4.93C182.085 4.96656 181.848 4.98993 181.61 5C181.083 5.033 180.75 5.033 180.61 5H180.49C180.601 4.34331 180.745 3.69252 180.92 3.05C180.967 2.86332 181.034 2.68226 181.12 2.51C181.184 2.39455 181.277 2.29796 181.39 2.23C181.495 2.16501 181.616 2.1304 181.74 2.13C181.931 2.14127 182.115 2.20721 182.27 2.32C182.51 2.496 182.714 2.716 182.87 2.97H183.09C183.182 2.33771 183.319 1.71279 183.5 1.1C183.309 1.02361 183.106 0.982934 182.9 0.98C182.665 0.971246 182.431 1.00862 182.21 1.09C181.859 1.28629 181.525 1.51034 181.21 1.76C180.713 2.11668 180.239 2.5041 179.79 2.92C179.549 3.13656 179.343 3.38964 179.18 3.67C179.06 3.94557 178.973 4.23419 178.92 4.53C178.92 4.72 178.85 4.84 178.82 4.92C178.564 5.03273 178.3 5.12632 178.03 5.2C177.71 5.293 177.47 5.37 177.31 5.43L177.24 5.8H177.68V5.81ZM76.07 22.3H74.74C74.7522 22.8715 74.6951 23.4423 74.57 24C74.5552 24.0781 74.5208 24.1512 74.4701 24.2124C74.4194 24.2736 74.354 24.3209 74.28 24.35C73.4676 24.514 72.6376 24.5745 71.81 24.53C71.357 24.53 70.487 24.493 69.2 24.42V22.34C69.2 19.72 69.257 17.91 69.37 16.91L70.96 16.84H72.39C73.1668 16.8305 73.9429 16.8874 74.71 17.01C75.1464 17.0568 75.572 17.175 75.97 17.36C76.0334 17.3913 76.0832 17.4446 76.11 17.51C76.173 17.772 76.204 18.04 76.2 18.31C76.26 19.123 76.29 19.65 76.29 19.89H77.52C77.52 19.223 77.567 18.447 77.66 17.56C77.753 16.673 77.85 15.94 77.95 15.36L77.81 15.15C76.8469 15.0464 75.8787 14.9963 74.91 15L67.63 15.14L62.29 15V16.3C62.89 16.323 63.487 16.38 64.08 16.47C64.233 16.494 64.379 16.548 64.51 16.63C64.5805 16.6975 64.6293 16.7846 64.65 16.88C64.7666 17.4222 64.8236 17.9754 64.82 18.53C64.913 21.197 64.96 22.61 64.96 22.77V29C64.96 29.533 64.933 30.413 64.88 31.64C64.827 32.867 64.787 33.597 64.76 33.83C64.7491 34.1056 64.6774 34.3754 64.55 34.62C64.4929 34.6992 64.4125 34.7586 64.32 34.79C63.652 34.9276 62.972 34.9979 62.29 35V36.25C64.15 36.177 65.51 36.14 66.37 36.14L72.29 36.22V35C71.4919 34.9713 70.6967 34.8878 69.91 34.75C69.758 34.708 69.6243 34.6165 69.53 34.49C69.3647 33.949 69.2838 33.3857 69.29 32.82C69.23 31.86 69.2 30.193 69.2 27.82V26.11H70.41C71.59 26.084 72.77 26.15 73.94 26.31C74.0452 26.3182 74.1476 26.3482 74.2405 26.3981C74.3335 26.4481 74.4151 26.5168 74.48 26.6C74.6883 27.3411 74.7761 28.111 74.74 28.88H76.07V22.3ZM84.49 36.08C85.157 36.08 86.317 36.1 87.97 36.14L91.53 36.22C92.823 36.22 93.777 36.193 94.39 36.14C94.6935 36.12 94.9947 36.0732 95.29 36C95.29 35.807 95.337 35.233 95.43 34.28L95.81 31.22V30.72H94.58C94.387 31.693 94.19 32.567 93.99 33.34C93.9464 33.5438 93.8576 33.7352 93.73 33.9C93.4997 34.0168 93.2478 34.0849 92.99 34.1C91.6654 34.2911 90.3282 34.3814 88.99 34.37C88.483 34.37 87.533 34.333 86.14 34.26V31.68V27.39V23.02C86.14 21.327 86.163 19.923 86.21 18.81C86.1885 18.1822 86.2153 17.5537 86.29 16.93C86.3297 16.8035 86.4153 16.6965 86.53 16.63C87.2087 16.4334 87.9136 16.3423 88.62 16.36V15C86.973 15.073 85.233 15.11 83.4 15.11C81.753 15.11 80.29 15.073 79.01 15V16.33C79.7949 16.295 80.5798 16.3965 81.33 16.63C81.439 16.6865 81.5215 16.7834 81.56 16.9C81.71 17.98 81.774 19.07 81.75 20.16V26.07C81.75 28.243 81.73 30.103 81.69 31.65C81.65 33.197 81.603 34.097 81.55 34.35C81.5418 34.4118 81.5177 34.4703 81.48 34.52C81.3622 34.6435 81.2234 34.7451 81.07 34.82C80.7161 35.0397 80.3487 35.2367 79.97 35.41V36.19C81.97 36.097 83.473 36.05 84.48 36.05L84.49 36.08ZM97.55 31.88C98.4393 33.4484 99.7763 34.7158 101.39 35.52C103.215 36.3887 105.22 36.8136 107.24 36.76C109.154 36.7986 111.057 36.4588 112.84 35.76C114.035 35.2522 115.119 34.5149 116.03 33.59C116.952 32.6694 117.677 31.5703 118.16 30.36C118.831 28.6811 119.171 26.8881 119.16 25.08C119.16 24.0422 119.036 23.0082 118.79 22C118.578 21.104 118.242 20.2422 117.79 19.44C116.666 17.5862 114.94 16.1743 112.9 15.44C111.288 14.9073 109.598 14.6471 107.9 14.67C106.164 14.6525 104.437 14.9228 102.79 15.47C101.492 15.935 100.305 16.6676 99.3078 17.6202C98.3104 18.5728 97.5241 19.7242 97 21C96.4104 22.5406 96.1252 24.1808 96.16 25.83C96.085 27.9177 96.5646 29.988 97.55 31.83V31.88ZM101.55 20.49C101.941 19.2437 102.736 18.1634 103.81 17.42C104.935 16.717 106.245 16.3686 107.57 16.42C108.645 16.3718 109.714 16.5954 110.68 17.07C111.481 17.54 112.165 18.1863 112.68 18.96C113.293 19.8744 113.74 20.89 114 21.96C114.319 23.2283 114.474 24.5323 114.46 25.84C114.507 27.631 114.219 29.415 113.61 31.1C113.189 32.3393 112.374 33.4068 111.29 34.14C110.26 34.7535 109.079 35.0685 107.88 35.05C106.619 35.0669 105.379 34.7197 104.31 34.05C103.167 33.2405 102.301 32.0988 101.83 30.78C101.116 28.9146 100.776 26.9267 100.83 24.93C100.811 23.4047 101.048 21.8871 101.53 20.44L101.55 20.49ZM121.29 16.6C121.388 16.6622 121.465 16.7529 121.51 16.86C121.659 17.607 121.719 18.3689 121.69 19.13L121.77 22.33V27.95L121.65 32.37C121.638 32.9692 121.588 33.5671 121.5 34.16C121.488 34.3079 121.444 34.4514 121.37 34.58C121.303 34.6577 121.211 34.7105 121.11 34.73C120.45 34.8454 119.78 34.9022 119.11 34.9V36.23C120.443 36.157 121.9 36.12 123.48 36.12C125.247 36.12 126.99 36.157 128.71 36.23V34.89C128.122 34.8943 127.534 34.8642 126.95 34.8C126.794 34.7766 126.645 34.7222 126.51 34.64C126.426 34.584 126.358 34.5085 126.31 34.42C126.196 34.0644 126.139 33.6933 126.14 33.32C126.14 33.04 126.11 31.86 126.05 29.78V24.97C126.05 24.01 126.08 22.103 126.14 19.25C126.14 17.977 126.17 17.157 126.23 16.79C126.706 16.7094 127.187 16.6692 127.67 16.67C128.434 16.6335 129.199 16.711 129.94 16.9C130.608 17.1526 131.184 17.6025 131.59 18.19C132.056 18.872 132.29 19.685 132.26 20.51C132.271 21.382 132.05 22.2412 131.62 23C131.273 23.6634 130.728 24.2019 130.06 24.54C129.186 24.8667 128.25 24.9931 127.32 24.91L127.15 25.41C127.512 25.694 127.829 26.031 128.09 26.41C128.757 27.29 129.543 28.497 130.45 30.03L133.69 35.37C133.847 35.64 133.968 35.929 134.05 36.23C134.85 36.19 135.653 36.17 136.46 36.17C137.127 36.17 138.25 36.19 139.83 36.23V34.89C139.492 34.9066 139.154 34.8661 138.83 34.77C138.641 34.6806 138.471 34.5549 138.33 34.4C138.157 34.22 137.693 33.63 136.94 32.63L135.94 31.13L133.59 27.63L133.42 27.34C133.36 27.24 133.18 26.96 132.85 26.48C132.52 26 132.24 25.55 131.99 25.1C133.359 24.6561 134.574 23.8304 135.49 22.72C136.232 21.7688 136.633 20.5963 136.63 19.39C136.659 18.4477 136.366 17.5237 135.8 16.77C135.304 16.0929 134.603 15.5946 133.8 15.35C132.633 15.0825 131.436 14.9682 130.24 15.01C129.42 15.01 128.387 15.04 127.14 15.1C126.38 15.147 125.473 15.17 124.42 15.17H121.54L119.12 15.1V16.3C119.87 16.3022 120.616 16.4031 121.34 16.6H121.29ZM145.44 15.14C143.793 15.14 142.333 15.103 141.06 15.03V16.36C141.702 16.3648 142.343 16.4082 142.98 16.49C143.113 16.5132 143.238 16.5719 143.34 16.66C143.415 16.7454 143.467 16.8488 143.49 16.96C143.6 17.759 143.66 18.564 143.67 19.37V29.58C143.67 30.613 143.63 31.733 143.55 32.94C143.5 33.77 143.46 34.24 143.43 34.36C143.407 34.4518 143.359 34.5352 143.29 34.6C143.164 34.6931 143.016 34.7517 142.86 34.77C142.7 34.77 142.093 34.807 141.04 34.88V36.21C142.489 36.1321 143.939 36.0954 145.39 36.1C147.263 36.1 149.02 36.137 150.66 36.21V34.89C150.055 34.8947 149.451 34.8613 148.85 34.79C148.685 34.764 148.528 34.7026 148.39 34.61C148.286 34.526 148.212 34.4101 148.18 34.28C148.049 33.6219 147.999 32.9503 148.03 32.28V23.38C148.03 23.187 148.05 21.853 148.09 19.38V17.89C148.092 17.5512 148.143 17.2145 148.24 16.89C148.27 16.7911 148.329 16.7038 148.41 16.64C148.533 16.555 148.673 16.4971 148.82 16.47C149.427 16.3956 150.038 16.3589 150.65 16.36V15C149.003 15.073 147.257 15.11 145.41 15.11L145.44 15.14ZM157.15 36.14L161.64 36.25C163.404 36.288 165.163 36.0622 166.86 35.58C168.324 35.1143 169.683 34.3669 170.86 33.38C172.104 32.3486 173.098 31.0496 173.77 29.58C174.498 27.9588 174.86 26.197 174.83 24.42C174.846 22.9953 174.606 21.5794 174.12 20.24C173.828 19.4669 173.405 18.7498 172.87 18.12C172.301 17.4471 171.626 16.8727 170.87 16.42C169.997 15.9288 169.047 15.5906 168.06 15.42C166.644 15.1736 165.207 15.0631 163.77 15.09C162.99 15.09 161.957 15.107 160.67 15.14C158.883 15.2 157.667 15.23 157.02 15.23L151.57 15V16.22C152.663 16.36 153.297 16.45 153.47 16.49C153.611 16.5136 153.742 16.5759 153.85 16.67C153.906 16.7298 153.947 16.8017 153.97 16.88C154.115 17.783 154.182 18.696 154.17 19.61C154.223 22.183 154.25 24.137 154.25 25.47V28C154.25 31.04 154.193 33.237 154.08 34.59C153.76 34.833 153.426 35.056 153.08 35.26L152.66 35.5V36.23L157.24 36.12L157.15 36.14ZM158.46 28.43V24.93C158.46 20.97 158.513 18.277 158.62 16.85C159.471 16.7226 160.33 16.6557 161.19 16.65C162.752 16.5828 164.315 16.7651 165.82 17.19C166.809 17.5328 167.685 18.1418 168.35 18.95C169.026 19.7761 169.517 20.7378 169.79 21.77C170.084 22.8588 170.232 23.9821 170.23 25.11C170.239 26.3009 170.091 27.4877 169.79 28.64C169.539 29.6415 169.123 30.5945 168.56 31.46C168.12 32.1523 167.557 32.7589 166.9 33.25C166.291 33.6683 165.614 33.9795 164.9 34.17C163.734 34.467 162.533 34.6082 161.33 34.59C160.428 34.5845 159.528 34.5042 158.64 34.35C158.533 33.39 158.48 31.41 158.48 28.41L158.46 28.43ZM175.63 36.14L179.12 36.25V35C178.39 35.0323 177.66 34.941 176.96 34.73C176.878 34.6738 176.813 34.597 176.771 34.5074C176.729 34.4178 176.711 34.3186 176.72 34.22C176.868 33.33 177.12 32.461 177.47 31.63L178.13 29.82H185.94L187.29 33.1C187.475 33.491 187.593 33.91 187.64 34.34C187.647 34.4262 187.629 34.5126 187.588 34.5889C187.547 34.6651 187.486 34.728 187.41 34.77C186.715 34.9323 186.003 35.0096 185.29 35V36.25L190.6 36.14L194.81 36.25V35L194.14 34.93C193.844 34.9212 193.549 34.8843 193.26 34.82C193.146 34.7814 193.04 34.7202 192.95 34.64C192.832 34.5271 192.734 34.3953 192.66 34.25L192.05 32.86L191.11 30.79L184.39 14.94H182.23L180.9 18.38L176.95 28.13C176.451 29.3685 175.948 30.6052 175.44 31.84C175.11 32.6116 174.777 33.3816 174.44 34.15C174.352 34.3175 174.237 34.4695 174.1 34.6C173.983 34.6974 173.847 34.769 173.7 34.81C173.217 34.895 172.73 34.948 172.24 34.97V36.22L175.71 36.11L175.63 36.14ZM181.99 20.2L185.23 28H178.88L182 20.17L181.99 20.2ZM63.08 2.81C63.1665 2.85224 63.2393 2.91811 63.29 3C63.34 3.131 63.367 3.27 63.37 3.41V9.07C63.4524 9.65192 63.7526 10.1809 64.21 10.55C64.5069 10.7835 64.8466 10.9568 65.21 11.06C65.7935 11.2367 66.4003 11.3244 67.01 11.32C67.4993 11.3263 67.9871 11.2658 68.46 11.14C68.8536 11.0339 69.2235 10.8541 69.55 10.61C69.8483 10.3962 70.1 10.124 70.29 9.81C70.462 9.50044 70.574 9.16115 70.62 8.81C70.6731 8.41891 70.6998 8.02468 70.7 7.63V6.1V4.3C70.7064 3.86464 70.7432 3.43025 70.81 3C70.8287 2.92548 70.8708 2.85891 70.93 2.81C71.1665 2.72351 71.419 2.68939 71.67 2.71V2.2L70.29 2.24H68.74V2.72C69.0487 2.70829 69.3569 2.75233 69.65 2.85C69.7166 2.88006 69.7699 2.9334 69.8 3C69.873 3.328 69.903 3.664 69.89 4V7.3C69.932 7.92168 69.8573 8.54573 69.67 9.14C69.5087 9.4727 69.2461 9.74576 68.92 9.92C68.4841 10.1409 67.9981 10.2443 67.51 10.22C67.0926 10.2301 66.6776 10.1553 66.29 10C65.9922 9.87782 65.7354 9.67313 65.55 9.41C65.367 9.10741 65.2638 8.76334 65.25 8.41V4.8C65.2149 4.2199 65.2283 3.63788 65.29 3.06C65.2948 3.0162 65.3089 2.97392 65.3313 2.93598C65.3537 2.89805 65.3839 2.86532 65.42 2.84C65.6969 2.73367 65.9946 2.69261 66.29 2.72V2.2H65.17L64.29 2.24L62.29 2.2V2.72L63.12 2.81H63.08ZM74.37 11.08H77.42V10.54H77.29C77.0892 10.5341 76.889 10.5175 76.69 10.49C76.6152 10.4849 76.5429 10.4608 76.48 10.42C76.4389 10.3897 76.4076 10.348 76.39 10.3C76.3362 10.003 76.3094 9.7018 76.31 9.4V4.2C78.817 7.26 80.753 9.553 82.12 11.08L83.21 11.24L83.29 11.19C83.23 10.59 83.2 8.883 83.2 6.07V4.4C83.1794 3.91153 83.2095 3.42224 83.29 2.94C83.2992 2.89873 83.3244 2.86277 83.36 2.84C83.66 2.746 83.976 2.708 84.29 2.73V2.2H81.29V2.73C81.629 2.7 81.97 2.745 82.29 2.86C82.3645 2.94575 82.4038 3.05649 82.4 3.17C82.453 3.57 82.48 4.903 82.48 7.17V8.64C81.893 8.033 81.153 7.197 80.26 6.13C79.1635 4.84454 78.0966 3.5342 77.06 2.2H74.37V2.73C74.641 2.74 74.912 2.766 75.18 2.81C75.2546 2.82416 75.3239 2.85878 75.38 2.91C75.4268 2.97153 75.4577 3.04366 75.47 3.12C75.486 3.32 75.486 3.52 75.47 3.72V8.94C75.437 9.56 75.407 9.95 75.38 10.11C75.372 10.1951 75.3446 10.2771 75.3 10.35C75.2677 10.3867 75.2263 10.4143 75.18 10.43C74.895 10.471 74.6078 10.4944 74.32 10.5V11.04L74.37 11.08ZM89 2.24H87.17V2.76C87.437 2.76 87.705 2.777 87.97 2.81C88.0254 2.81931 88.0773 2.8435 88.12 2.88C88.1513 2.91714 88.1721 2.96206 88.18 3.01C88.237 3.337 88.274 3.668 88.29 4V8.3C88.29 8.733 88.27 9.203 88.23 9.71V10.31C88.2204 10.3486 88.1995 10.3834 88.17 10.41C88.117 10.4484 88.055 10.4726 87.99 10.48H87.23V11.04H91.26V10.52C91.0069 10.5361 90.7531 10.5361 90.5 10.52C90.4209 10.4986 90.3486 10.4573 90.29 10.4C90.2455 10.3645 90.2138 10.3153 90.2 10.26C90.1449 9.98023 90.1248 9.69472 90.14 9.41V5.7V4.02V3.4C90.1387 3.26503 90.1555 3.1305 90.19 3C90.2067 2.94863 90.2425 2.90565 90.29 2.88C90.3411 2.84496 90.399 2.8211 90.46 2.81C90.7164 2.79417 90.9736 2.79417 91.23 2.81V2.2H89.03L89 2.24ZM99.14 11.12C99.4 10.4 99.893 9.167 100.62 7.42L101.48 5.42L101.93 4.37C102.104 3.85983 102.346 3.37547 102.65 2.93C102.881 2.84487 103.124 2.80087 103.37 2.8V2.2H100.39V2.76H101.32C101.357 2.77778 101.388 2.80548 101.41 2.84C101.424 2.89241 101.424 2.94759 101.41 3C101.415 3.04989 101.415 3.10011 101.41 3.15C101.37 3.323 101.253 3.657 101.06 4.15C100.913 4.5513 100.763 4.95131 100.61 5.35L99.2 8.84L97.6 5V4.88L97.29 4.27C97.1049 3.88376 96.964 3.47786 96.87 3.06C96.8649 3.00216 96.8829 2.94465 96.92 2.9C96.973 2.85176 97.0391 2.82043 97.11 2.81C97.3641 2.76477 97.622 2.74467 97.88 2.75V2.2H93.75V2.76C94.018 2.74485 94.2863 2.78222 94.54 2.87C94.703 3.027 94.829 3.219 94.91 3.43C95.07 3.75 95.503 4.75 96.21 6.43L97.11 8.58L98.11 11.11H99.11L99.14 11.12ZM108.29 11H111.37C111.753 11.02 112.137 11.02 112.52 11L112.6 10.92C112.61 10.228 112.657 9.53704 112.74 8.85H112.29C112.244 9.23964 112.164 9.62446 112.05 10C112.035 10.0439 112.007 10.0822 111.97 10.11C111.743 10.195 111.502 10.239 111.26 10.24H108.79V6.85C109.123 6.83173 109.457 6.83173 109.79 6.85C110.168 6.84483 110.546 6.86823 110.92 6.92C111.03 6.93 111.128 6.99 111.19 7.08C111.285 7.373 111.319 7.683 111.29 7.99H111.8V5.21H111.29C111.293 5.47935 111.263 5.74804 111.2 6.01C111.186 6.06226 111.154 6.10808 111.11 6.14C110.978 6.16316 110.842 6.16316 110.71 6.14H108.81V4.82C108.805 4.20879 108.835 3.59781 108.9 2.99H110.05C110.461 2.99034 110.872 3.01371 111.28 3.06C111.455 3.0634 111.627 3.09725 111.79 3.16C111.831 3.19296 111.859 3.23882 111.87 3.29C111.914 3.595 111.934 3.902 111.93 4.21H112.42L112.48 3.29L112.6 2.37V2.29L112.29 2.2H105.83V2.74C106.14 2.737 106.45 2.774 106.75 2.85C106.794 2.87004 106.83 2.9056 106.85 2.95C106.92 3.238 106.95 3.534 106.94 3.83V7.92C106.94 8.253 106.923 8.783 106.89 9.51C106.89 9.91 106.89 10.2 106.83 10.37C106.638 10.517 106.43 10.64 106.21 10.74V11.08L108.29 11ZM116.64 2.82C116.681 2.84625 116.712 2.88475 116.73 2.93C116.798 3.259 116.825 3.595 116.81 3.93V7.6L116.76 9.45C116.756 9.70104 116.736 9.95157 116.7 10.2C116.697 10.263 116.68 10.3246 116.65 10.38C116.621 10.4113 116.582 10.4323 116.54 10.44C116.259 10.488 115.975 10.5114 115.69 10.51V11.07H119.71V10.52C119.464 10.5344 119.216 10.5344 118.97 10.52C118.906 10.5088 118.845 10.485 118.79 10.45C118.757 10.4267 118.729 10.3958 118.71 10.36C118.664 10.2111 118.64 10.056 118.64 9.9V8.41V6.41V4.01V3.01C118.838 2.97656 119.039 2.95984 119.24 2.96C119.577 2.94062 119.914 2.97437 120.24 3.06C120.52 3.166 120.76 3.354 120.93 3.6C121.13 3.894 121.229 4.245 121.21 4.6C121.207 4.95089 121.114 5.2951 120.94 5.6C120.797 5.87976 120.57 6.10725 120.29 6.25C119.924 6.389 119.53 6.44369 119.14 6.41L119.07 6.62C119.22 6.739 119.352 6.88 119.46 7.04C119.733 7.407 120.067 7.913 120.46 8.56L121.82 10.8C121.885 10.913 121.935 11.034 121.97 11.16H124.39V10.52C124.255 10.5251 124.12 10.5082 123.99 10.47C123.91 10.4316 123.838 10.3771 123.78 10.31C123.707 10.237 123.513 9.99 123.2 9.57L122.77 8.94L121.77 7.47L121.7 7.35L121.5 7C121.37 6.8 121.24 6.61 121.14 6.42C121.712 6.23252 122.219 5.88558 122.6 5.42C122.913 5.02 123.082 4.527 123.08 4.02C123.092 3.62419 122.968 3.23616 122.73 2.92C122.521 2.63748 122.227 2.43041 121.89 2.33C121.402 2.21862 120.901 2.17156 120.4 2.19H115.75V2.72C116.064 2.722 116.377 2.766 116.68 2.85L116.64 2.82ZM133.03 3.45C133.058 3.1778 133.102 2.90738 133.16 2.64L133.11 2.49C132.761 2.32465 132.391 2.20693 132.01 2.14C131.581 2.05959 131.146 2.01942 130.71 2.02C130.286 2.01865 129.863 2.06562 129.45 2.16C129.058 2.24813 128.685 2.40743 128.35 2.63C128.01 2.86538 127.737 3.1861 127.56 3.56C127.359 3.96715 127.256 4.41587 127.26 4.87C127.259 5.19434 127.316 5.51623 127.43 5.82C127.537 6.10479 127.708 6.3613 127.93 6.57C128.182 6.796 128.484 6.96 128.81 7.05C129.05 7.123 129.553 7.24 130.32 7.4C130.706 7.47487 131.082 7.59573 131.44 7.76C131.64 7.862 131.804 8.022 131.91 8.22C132.016 8.434 132.067 8.671 132.06 8.91C132.065 9.20681 131.993 9.49986 131.85 9.76C131.691 10.0269 131.448 10.2341 131.16 10.35C130.819 10.4965 130.451 10.5682 130.08 10.56C129.635 10.5646 129.196 10.4616 128.8 10.26C128.465 10.1104 128.178 9.87172 127.97 9.57C127.919 9.19217 127.896 8.81119 127.9 8.43H127.39C127.411 9.16868 127.344 9.90726 127.19 10.63C127.617 10.8445 128.067 11.0121 128.53 11.13C128.986 11.234 129.452 11.2843 129.92 11.28C130.543 11.2969 131.165 11.1951 131.75 10.98C132.09 10.842 132.403 10.65 132.68 10.41C132.967 10.1724 133.207 9.88429 133.39 9.56C133.623 9.12 133.74 8.628 133.73 8.13C133.734 7.84874 133.693 7.56862 133.61 7.3C133.544 7.07687 133.439 6.86705 133.3 6.68C133.162 6.50593 132.993 6.35995 132.8 6.25C132.539 6.10591 132.26 5.99824 131.97 5.93L131.12 5.77L130.12 5.58C129.865 5.52114 129.619 5.4269 129.39 5.3C129.227 5.20224 129.095 5.06001 129.01 4.89C128.912 4.67694 128.864 4.44437 128.87 4.21C128.873 4.01948 128.916 3.83174 128.997 3.6593C129.078 3.48686 129.195 3.33369 129.34 3.21C129.714 2.89684 130.193 2.73931 130.68 2.77C131.055 2.76572 131.426 2.84069 131.77 2.99C132.036 3.09 132.27 3.26 132.45 3.48C132.49 3.812 132.51 4.146 132.51 4.48H133.04C133.04 4.05 133.04 3.7 133.1 3.48L133.03 3.45ZM138.67 2.22H136.84V2.76C137.107 2.76069 137.375 2.77738 137.64 2.81C137.695 2.81931 137.747 2.8435 137.79 2.88C137.821 2.91714 137.842 2.96206 137.85 3.01C137.898 3.34133 137.924 3.67532 137.93 4.01V8.3C137.93 8.733 137.913 9.203 137.88 9.71V10.31C137.87 10.3486 137.849 10.3834 137.82 10.41C137.767 10.4484 137.705 10.4726 137.64 10.48H136.88V11.04H140.91V10.52C140.657 10.5361 140.403 10.5361 140.15 10.52C140.082 10.5074 140.017 10.4801 139.96 10.44C139.915 10.405 139.883 10.3556 139.87 10.3C139.815 10.0202 139.795 9.73472 139.81 9.45V5.7V4.02V3.4C139.819 3.26368 139.845 3.12913 139.89 3C139.903 2.96073 139.928 2.92606 139.96 2.9C140.011 2.86522 140.069 2.84139 140.13 2.83C140.383 2.81453 140.637 2.81453 140.89 2.83V2.2H138.69L138.67 2.22ZM147.51 11C148.077 11 148.77 11.017 149.59 11.05V10.56C149.283 10.5702 148.976 10.5331 148.68 10.45C148.633 10.4254 148.592 10.3913 148.56 10.35C148.527 10.3087 148.503 10.261 148.49 10.21C148.423 9.66271 148.4 9.11099 148.42 8.56V4.76V3.02H149.33C149.817 3.02 150.233 3.037 150.58 3.07C150.646 3.05428 150.714 3.05428 150.78 3.07C150.828 3.15238 150.855 3.24493 150.86 3.34C150.907 3.651 150.934 3.965 150.94 4.28H151.46V2.89C151.471 2.66227 151.495 2.43529 151.53 2.21L151.47 2.15H143.45L143.39 2.21C143.39 2.423 143.41 2.623 143.45 2.81C143.49 2.997 143.49 3.487 143.45 4.28H143.97C143.977 3.945 144.01 3.61 144.07 3.28C144.075 3.20057 144.103 3.12427 144.15 3.06C144.225 3.02549 144.307 3.0084 144.39 3.01H146.51V8.55C146.53 9.09766 146.507 9.64607 146.44 10.19C146.427 10.2426 146.404 10.2919 146.371 10.335C146.339 10.378 146.297 10.4138 146.25 10.44C145.953 10.5179 145.647 10.5516 145.34 10.54V11.06C146.12 11.027 146.813 11.01 147.42 11.01L147.51 11ZM157.91 4.62C157.636 4.07521 157.328 3.54757 156.99 3.04C156.848 2.81419 156.684 2.60314 156.5 2.41C156.33 2.25133 156.142 2.11367 155.94 2L155.24 2.17L153.89 2.44V3C154.076 2.97535 154.264 2.97535 154.45 3C154.618 3.116 154.769 3.254 154.9 3.41C155.271 3.8413 155.606 4.30291 155.9 4.79C156.353 5.497 156.78 6.213 157.18 6.94C157.296 7.12388 157.377 7.32716 157.42 7.54V9.98C157.423 10.1101 157.399 10.2395 157.35 10.36C157.306 10.4115 157.246 10.4468 157.18 10.46C156.898 10.4977 156.614 10.5177 156.33 10.52V11.08H160.45V10.52C160.169 10.526 159.888 10.5093 159.61 10.47C159.537 10.4547 159.47 10.4161 159.42 10.36C159.359 10.221 159.325 10.0717 159.32 9.92C159.3 9.53 159.3 9.14 159.32 8.75V7.66C159.305 7.50034 159.305 7.33965 159.32 7.18C159.36 7.013 159.42 6.852 159.5 6.7C159.64 6.433 160.007 5.833 160.6 4.9C161.193 3.967 161.757 3.16 162.29 2.48V2.2H161.29C161.23 2.32 161.08 2.59 160.85 2.99L159.65 5.11L158.85 6.4C158.75 6.18 158.453 5.593 157.96 4.64L157.91 4.62Z" fill="white"/>
<path fill-rule="evenodd" clip-rule="evenodd" d="M36.21 30.38V21.71H44.2V15.99H36.21V7.89H44.98V11.03H50.77V2.22H27.59V7.89H29.77V30.38H27.6V36.1H38.3V30.38H36.21ZM24.58 23.29V7.89H26.72V2.22H16.01V7.89H18.1V21.38C18.1 27.04 17.45 29.75 13.39 29.75C9.33 29.75 8.67 27 8.67 21.38V7.89H10.74V2.22H0V7.89H2.13V23.29C2.13 26.66 2.13 29.41 3.72 31.89C5.49 34.69 8.72 36.48 13.38 36.48C21.64 36.48 24.58 32.17 24.58 23.29V23.29Z" fill="white"/>
</svg>
