<svg width="399" height="135" viewBox="0 0 399 135" fill="none" xmlns="http://www.w3.org/2000/svg">
<path d="M196.956 9.38701C249.219 9.38701 292.139 48.511 298.562 98.73H307.613C307.905 98.146 307.905 97.27 307.905 96.686L306.445 87.927C306.153 85.883 304.109 84.423 302.358 84.715H302.066C301.774 83.839 301.774 82.964 301.482 82.38H301.774C303.526 81.796 304.401 79.46 303.818 77.708L300.898 69.241C300.314 67.197 298.27 66.321 296.226 66.905H295.934C295.642 66.029 295.35 65.445 294.766 64.569H295.058C296.81 63.693 297.394 61.358 296.226 59.606L291.846 52.015C290.679 50.263 288.635 49.387 286.883 50.555C286.299 49.971 286.007 49.095 285.423 48.511C286.883 47.343 287.175 45.007 285.715 43.255L279.875 36.54C278.416 35.08 276.372 34.788 274.62 35.956L272.869 34.204C274.036 32.744 273.745 30.409 272.285 28.949L265.569 23.109C264.109 21.649 261.774 21.942 260.314 23.401C259.73 22.818 258.854 22.526 258.27 21.941C259.146 20.19 258.562 18.146 256.81 16.978L249.219 12.598C247.467 11.431 245.131 12.015 244.255 13.766C243.38 13.474 242.795 13.182 241.92 12.599C242.504 10.847 241.336 8.80301 239.584 8.21901L231.117 5.29901C229.073 4.71501 227.029 5.59101 226.445 7.34301C225.569 7.05101 224.693 6.75901 224.109 6.75901C224.401 5.00701 222.942 3.25501 220.898 2.67201L212.138 1.21201C210.095 0.920006 208.343 2.08801 207.759 3.83901C206.883 3.83901 206.007 3.54701 205.131 3.54701C205.131 1.79601 203.38 0.0440063 201.336 0.0440063H192.285C190.241 0.0440063 188.489 1.50401 188.489 3.54701C187.613 3.54701 186.737 3.54701 185.861 3.83901C185.569 2.08801 183.526 0.919006 181.481 1.21201L172.723 2.67201C170.679 2.96401 169.219 4.71501 169.511 6.75901C168.635 7.05101 167.759 7.05101 167.175 7.34301C166.591 5.59101 164.255 4.71501 162.504 5.29901L154.036 8.21901C151.993 8.80301 151.116 10.847 151.701 12.599C150.825 12.891 150.241 13.182 149.365 13.766C148.489 12.015 146.153 11.723 144.401 12.599L136.811 16.979C135.058 18.146 134.474 20.189 135.351 21.942C134.766 22.526 133.891 22.818 133.307 23.402C132.139 21.942 129.803 21.942 128.051 23.109L121.336 28.949C119.876 30.409 119.584 32.453 120.752 34.204L119 35.956C117.54 34.788 115.204 35.08 113.745 36.54L107.905 43.255C106.445 44.715 106.737 47.051 108.197 48.511C107.613 49.095 107.321 49.971 106.737 50.555C104.985 49.679 102.942 50.263 101.774 52.015L97.394 59.605C96.226 61.358 96.81 63.693 98.562 64.569H98.854C98.562 65.445 98.27 66.029 97.686 66.905H97.394C95.642 66.321 93.599 67.197 92.723 69.241L89.803 77.708C89.219 79.752 90.095 81.796 91.847 82.38H92.139C91.847 83.255 91.847 83.84 91.555 84.715H91.263C89.219 84.423 87.467 85.883 87.175 87.927L85.715 96.687C85.715 97.27 85.715 98.146 86.007 98.73H95.058C101.774 48.219 144.985 9.38701 196.956 9.38701V9.38701Z" fill="white"/>
<path d="M196.956 9.38702C144.693 9.38702 101.774 48.511 95.35 98.73H101.774C108.197 51.723 148.197 15.81 196.956 15.81C245.716 15.81 285.716 52.015 292.139 98.73H298.562C292.139 48.219 249.219 9.38702 196.956 9.38702V9.38702Z" fill="white"/>
<path d="M176.226 62.818L174.766 68.948C173.015 75.664 171.263 88.219 170.386 98.438H194.036V21.942C187.029 32.745 180.022 49.387 176.226 62.818ZM217.978 62.818C214.182 49.095 207.175 32.745 200.168 22.234V98.73H223.818C222.942 88.219 221.19 75.956 219.438 69.24L217.978 62.818ZM245.131 62.818C237.248 47.051 224.693 32.453 208.051 22.818C214.474 33.328 221.481 50.847 224.401 62.818L225.861 68.948C227.613 74.788 229.365 87.927 230.241 98.438H255.642C254.474 88.219 251.847 77.416 248.052 68.948L245.132 62.818H245.131Z" fill="white"/>
<path d="M272.285 62.818C263.525 49.095 246.007 32.745 224.109 26.029C235.496 35.372 245.423 47.635 252.431 62.818L255.058 68.948C258.27 76.832 260.898 87.051 262.358 97.562C262.358 97.854 262.65 98.146 262.65 98.438H286.007C284.547 88.219 281.336 78 276.08 68.948L272.285 62.818V62.818ZM169.511 62.818C172.431 50.847 179.73 33.328 185.861 22.818C169.219 32.453 156.956 47.051 148.781 62.818L145.861 68.948C142.066 77.416 139.438 88.219 138.271 98.438H163.671C164.547 87.927 166.299 74.788 167.759 68.948L169.511 62.818Z" fill="white"/>
<path d="M141.774 62.818C148.781 47.927 158.416 35.372 170.094 26.029C148.197 32.745 130.679 48.803 121.92 62.818L118.124 68.948C113.161 78 109.949 88.219 108.489 98.438H132.139C133.307 87.343 136.226 76.832 139.438 68.948L141.774 62.818Z" fill="white"/>
<path d="M1.33577 134.058L0.167885 111.869H5.13139L5.42336 128.803L14.4745 111.869H20.0219L20.3139 128.803L29.6569 111.869H34.3285L21.4818 134.058H15.6423V117.708L6.88321 134.058H1.33577Z" fill="white"/>
<path d="M54.474 122.964C52.723 129.679 48.635 134.35 40.168 134.35C32.577 134.35 30.241 130.555 32.285 122.672C34.62 113.912 40.168 111.285 46.591 111.285C52.431 111.577 57.102 113.62 54.474 122.964ZM41.044 130.554C45.424 130.554 48.051 127.344 49.219 122.964C50.095 119.752 50.679 115.372 45.423 115.372C41.336 115.372 38.708 118.292 37.248 122.964C36.08 127.051 36.372 130.554 41.044 130.554V130.554ZM54.474 134.058L60.606 111.868H71.993C77.248 111.868 79.292 113.62 77.833 118.584C76.956 121.796 74.913 124.131 71.701 124.715L74.621 134.058H69.365L66.737 125.299H61.19L58.854 134.059H54.474V134.058ZM64.109 115.956L62.649 121.504H68.197C71.409 121.504 72.577 120.92 73.161 118.584C73.453 117.124 74.036 115.956 69.657 115.956H64.109V115.956ZM92.139 134.058H86.299C80.752 134.058 77.249 132.891 79.584 125.008L83.38 111.868H88.051L84.547 124.131C83.38 128.511 82.796 130.555 87.759 130.555H93.307L92.139 134.058ZM94.474 134.058L100.606 111.868H110.825C118.125 111.868 120.168 115.664 118.125 123.255C116.665 128.219 113.745 133.766 104.985 133.766H94.475V134.058H94.474ZM104.401 115.664L100.314 129.971H105.569C109.365 129.971 111.117 129.095 112.869 122.671C114.329 117.708 114.036 115.372 109.365 115.372H104.401V115.664V115.664ZM130.095 134.058L136.226 111.868H147.613C151.409 111.868 155.788 112.161 154.036 118C153.453 120.044 151.993 121.796 149.365 122.964C150.825 123.839 151.993 125.007 151.409 127.927C149.949 132.891 146.445 134.058 142.358 134.058H130.095V134.058ZM140.022 115.956L138.562 120.92H145.277C147.029 120.92 148.489 120.336 149.073 118.292C149.657 116.54 148.781 115.664 146.737 115.664L140.022 115.956V115.956ZM135.934 129.971H142.65C144.11 129.971 145.861 129.679 146.445 127.343C147.029 125.591 146.153 124.715 144.109 124.715H137.394L135.934 129.971V129.971Z" fill="white"/>
<path d="M164.547 111.869L158.416 134.058H153.453L159.584 111.869H164.547Z" fill="white"/>
<path d="M184.693 115.664H177.103C173.891 115.664 171.263 117.416 169.511 123.839C167.759 129.971 170.095 130.263 173.307 130.263H180.897L179.73 134.058H171.847C164.839 134.058 162.504 130.263 164.547 123.548C166.299 116.832 170.095 112.161 178.27 112.161H185.861L184.693 115.664V115.664Z" fill="white"/>
<path d="M190.533 124.131L185.861 111.869H191.117L194.328 120.336L202.212 111.869H207.467L195.496 124.131L192.869 133.766H188.197L190.533 124.131Z" fill="white"/>
<path d="M224.11 115.664H216.518C213.307 115.664 210.678 117.416 208.927 123.839C207.175 129.971 209.511 130.263 212.431 130.263H220.021L218.854 134.058H210.971C203.964 134.058 201.628 130.263 203.671 123.548C205.423 116.832 209.219 112.161 217.394 112.161H224.985L224.109 115.664H224.11ZM236.956 134.058H231.116C225.569 134.058 222.066 132.891 224.401 125.008L228.197 111.868H232.869L229.365 124.131C228.197 128.511 227.613 130.555 232.577 130.555H238.124L236.956 134.058V134.058ZM261.19 115.664H253.599C250.387 115.664 248.051 117.416 246.883 120.92H259.73L258.562 124.715H245.715C244.547 128.803 246.007 130.263 249.511 130.263H257.102L255.934 134.058H248.051C241.044 134.058 238.708 130.263 240.751 123.548C242.504 116.832 246.299 112.161 254.474 112.161H262.066L261.19 115.664V115.664ZM272.285 134.058L278.416 111.868H289.803C295.058 111.868 297.103 113.62 295.643 118.584C294.766 121.796 292.723 124.131 289.511 124.715L292.431 134.058H287.175L284.547 125.299H279.292L276.956 134.059H272.285V134.058ZM281.92 115.956L280.46 121.504H286.007C289.219 121.504 290.387 120.92 290.971 118.584C291.263 117.124 291.847 115.956 287.467 115.956H281.92ZM316.956 115.664H309.365C306.153 115.664 303.818 117.416 302.65 120.92H315.496L314.328 124.715H301.482C300.314 128.803 301.774 130.263 305.277 130.263H312.869L311.701 134.058H303.818C296.81 134.058 294.474 130.263 296.518 123.548C298.27 116.832 302.066 112.161 310.241 112.161H317.832L316.956 115.664V115.664ZM330.679 134.058H324.839C319.292 134.058 315.789 132.891 318.124 125.008L321.92 111.868H326.591L323.088 124.131C321.92 128.511 321.336 130.555 326.299 130.555H331.847L330.679 134.058V134.058Z" fill="white"/>
<path d="M344.109 111.869L337.978 134.058H333.015L339.146 111.869H344.109Z" fill="white"/>
<path d="M364.547 115.664H356.957C353.745 115.664 351.409 117.416 350.241 120.92H363.088L361.92 124.715H349.073C347.905 128.803 349.365 130.263 352.869 130.263H360.459L359.292 134.058H351.409C344.401 134.058 342.066 130.263 344.109 123.548C345.861 116.832 349.657 112.161 357.832 112.161H365.423L364.547 115.664V115.664ZM363.38 134.058L366.3 123.839C369.219 113.036 373.599 111.869 380.606 111.869H387.613L386.445 115.664H378.854C375.058 115.664 373.014 116.832 371.554 121.212H384.694L383.526 125.007H370.386L367.759 134.058H363.379H363.38ZM394.328 109.533C396.664 109.533 398.708 111.577 398.708 113.913C398.708 116.248 396.664 118.292 394.328 118.292C391.993 118.292 389.948 116.248 389.948 113.912C389.948 111.285 391.701 109.532 394.328 109.532V109.533ZM394.328 110.117C392.285 110.117 390.825 111.869 390.825 113.912C390.825 115.956 392.285 117.708 394.328 117.708C396.372 117.708 397.832 115.956 397.832 113.912C397.832 111.869 396.08 110.117 394.328 110.117ZM393.453 116.248H392.577V111.285H394.037C394.912 111.285 395.204 111.577 395.497 111.577C395.788 111.869 396.08 112.161 396.08 112.453C396.08 113.036 395.788 113.62 395.204 113.62C395.496 113.62 395.788 114.204 396.08 114.788C396.08 115.664 396.372 115.956 396.372 115.956H395.496C395.496 115.664 395.204 115.372 395.204 114.788C395.204 114.204 394.912 113.912 394.036 113.912H393.453V116.248V116.248ZM393.453 113.62H394.036C394.62 113.62 395.204 113.328 395.204 112.745C395.204 112.453 394.912 111.869 394.036 111.869H393.453V113.62Z" fill="white"/>
</svg>
